<svg xmlns="http://www.w3.org/2000/svg" xmlns:xlink="http://www.w3.org/1999/xlink" width="1024" zoomAndPan="magnify" viewBox="0 0 768 767.999994" height="1024" preserveAspectRatio="xMidYMid meet" version="1.0"><defs><g/></defs><g fill="#ff00ff" fill-opacity="1"><g transform="translate(141.136274, 333.750471)"><g><path d="M 74.09375 -75.484375 L 74.09375 -47.40625 L 58.21875 -47.40625 L 58.21875 -61.234375 L 49.140625 -61.234375 L 49.140625 -14.359375 L 58.109375 -14.359375 L 58.109375 0 L 17.921875 0 L 17.921875 -14.359375 L 26.78125 -14.359375 L 26.78125 -61.234375 L 17.5 -61.234375 L 17.5 -47.40625 L 1.625 -47.40625 L 1.625 -75.484375 Z M 74.09375 -75.484375 "/></g></g></g><g fill="#ff00ff" fill-opacity="1"><g transform="translate(216.844294, 333.750471)"><g><path d="M 47.84375 -17.921875 L 56.921875 -7.453125 C 52.953125 -3.992188 48.71875 -1.5625 44.21875 -0.15625 C 39.71875 1.238281 34.660156 1.9375 29.046875 1.9375 C 25.734375 1.9375 22.382812 1.378906 19 0.265625 C 15.625 -0.847656 12.546875 -2.570312 9.765625 -4.90625 C 6.992188 -7.25 4.765625 -10.273438 3.078125 -13.984375 C 1.390625 -17.691406 0.546875 -22.140625 0.546875 -27.328125 C 0.546875 -33.234375 1.835938 -38.289062 4.421875 -42.5 C 7.015625 -46.707031 10.503906 -49.925781 14.890625 -52.15625 C 19.285156 -54.394531 24.1875 -55.515625 29.59375 -55.515625 C 36 -55.515625 41.503906 -54.035156 46.109375 -51.078125 C 50.722656 -48.128906 53.820312 -44.390625 55.40625 -39.859375 C 55.832031 -38.628906 56.207031 -36.96875 56.53125 -34.875 C 56.863281 -32.789062 56.992188 -30.578125 56.921875 -28.234375 C 56.847656 -25.898438 56.414062 -23.6875 55.625 -21.59375 L 21.59375 -21.59375 C 21.8125 -20.664062 22.207031 -19.5 22.78125 -18.09375 C 23.363281 -16.6875 24.410156 -15.441406 25.921875 -14.359375 C 27.429688 -13.285156 29.695312 -12.75 32.71875 -12.75 C 34.59375 -12.75 36.863281 -13 39.53125 -13.5 C 42.195312 -14 44.96875 -15.472656 47.84375 -17.921875 Z M 21.921875 -32.296875 L 38.234375 -32.296875 C 38.234375 -33.660156 38.035156 -35.007812 37.640625 -36.34375 C 37.242188 -37.675781 36.488281 -38.773438 35.375 -39.640625 C 34.257812 -40.503906 32.546875 -40.9375 30.234375 -40.9375 C 28.078125 -40.9375 26.40625 -40.394531 25.21875 -39.3125 C 24.03125 -38.226562 23.203125 -37.019531 22.734375 -35.6875 C 22.265625 -34.363281 21.992188 -33.234375 21.921875 -32.296875 Z M 21.921875 -32.296875 "/></g></g></g><g fill="#ff00ff" fill-opacity="1"><g transform="translate(275.380317, 333.750471)"><g><path d="M 33.265625 0 L 2.703125 0 L 2.703125 -14.140625 L 7.453125 -14.140625 L 7.453125 -39.953125 L 2.8125 -39.953125 L 2.8125 -54 L 23.109375 -54 L 26.359375 -47.09375 C 27.285156 -48.820312 28.328125 -50.421875 29.484375 -51.890625 C 30.640625 -53.367188 32.273438 -54.539062 34.390625 -55.40625 C 36.515625 -56.269531 39.414062 -56.703125 43.09375 -56.703125 L 43.09375 -37.265625 C 38.269531 -37.265625 34.523438 -36.453125 31.859375 -34.828125 C 29.191406 -33.210938 27.859375 -30.023438 27.859375 -25.265625 L 27.859375 -14.140625 L 33.265625 -14.140625 Z M 33.265625 0 "/></g></g></g><g fill="#ff00ff" fill-opacity="1"><g transform="translate(320.092336, 333.750471)"><g><path d="M 34.78125 0 L 2.703125 0 L 2.703125 -14.140625 L 7.234375 -14.140625 L 7.234375 -39.640625 L 2.703125 -39.640625 L 2.703125 -53.890625 L 23.109375 -53.890625 L 25.484375 -47.515625 C 26.066406 -48.234375 26.984375 -49.203125 28.234375 -50.421875 C 29.492188 -51.648438 31.039062 -52.785156 32.875 -53.828125 C 34.71875 -54.878906 36.753906 -55.40625 38.984375 -55.40625 C 42.660156 -55.40625 45.5625 -54.9375 47.6875 -54 C 49.8125 -53.0625 51.429688 -51.976562 52.546875 -50.75 C 53.660156 -49.53125 54.503906 -48.488281 55.078125 -47.625 C 56.734375 -49.5 58.859375 -51.265625 61.453125 -52.921875 C 64.046875 -54.578125 67.210938 -55.40625 70.953125 -55.40625 C 75.347656 -55.40625 78.875 -54.679688 81.53125 -53.234375 C 84.195312 -51.796875 86.234375 -49.851562 87.640625 -47.40625 C 89.046875 -44.957031 89.984375 -42.1875 90.453125 -39.09375 C 90.921875 -36 91.15625 -32.796875 91.15625 -29.484375 L 91.15625 -14.578125 L 96.4375 -14.578125 L 96.4375 0 L 69.015625 0 L 69.015625 -26.453125 C 69.015625 -28.179688 69.03125 -30.085938 69.0625 -32.171875 C 69.101562 -34.265625 68.851562 -36.066406 68.3125 -37.578125 C 67.769531 -39.097656 66.632812 -39.859375 64.90625 -39.859375 C 62.601562 -39.859375 61.070312 -39.117188 60.3125 -37.640625 C 59.5625 -36.160156 59.1875 -34.269531 59.1875 -31.96875 L 59.1875 -14.46875 L 65.65625 -14.46875 L 65.65625 0 L 37.6875 0 L 37.6875 -27.546875 C 37.6875 -31.929688 37.46875 -35.078125 37.03125 -36.984375 C 36.601562 -38.898438 35.3125 -39.859375 33.15625 -39.859375 C 29.914062 -39.859375 28.296875 -37.695312 28.296875 -33.375 L 28.296875 -14.140625 L 34.78125 -14.140625 Z M 34.78125 0 "/></g></g></g><g fill="#ff00ff" fill-opacity="1"><g transform="translate(418.156365, 333.750471)"><g><path d="M 5.71875 -69.765625 C 5.71875 -71.421875 6.164062 -73.09375 7.0625 -74.78125 C 7.96875 -76.476562 9.285156 -77.898438 11.015625 -79.046875 C 12.742188 -80.203125 14.867188 -80.78125 17.390625 -80.78125 C 19.910156 -80.78125 22.050781 -80.203125 23.8125 -79.046875 C 25.570312 -77.898438 26.921875 -76.476562 27.859375 -74.78125 C 28.796875 -73.09375 29.265625 -71.421875 29.265625 -69.765625 C 29.265625 -66.816406 28.238281 -64.257812 26.1875 -62.09375 C 24.132812 -59.9375 21.203125 -58.859375 17.390625 -58.859375 C 15.160156 -58.859375 13.160156 -59.414062 11.390625 -60.53125 C 9.628906 -61.644531 8.242188 -63.03125 7.234375 -64.6875 C 6.222656 -66.34375 5.71875 -68.035156 5.71875 -69.765625 Z M 32.9375 0 L 2.703125 0 L 2.703125 -14.140625 L 7.234375 -14.140625 L 7.234375 -39.953125 L 2.703125 -39.953125 L 2.703125 -54 L 27.75 -54 L 27.75 -14.140625 L 32.9375 -14.140625 Z M 32.9375 0 "/></g></g></g><g fill="#ff00ff" fill-opacity="1"><g transform="translate(453.796378, 333.750471)"><g><path d="M 35.96875 0 L 2.703125 0 L 2.703125 -14.140625 L 7.234375 -14.140625 L 7.234375 -39.953125 L 2.703125 -39.953125 L 2.703125 -54 L 25.703125 -54 L 28.1875 -47.296875 C 30.0625 -49.816406 32.257812 -51.882812 34.78125 -53.5 C 37.300781 -55.125 40.25 -55.9375 43.625 -55.9375 C 47.800781 -55.9375 51.1875 -55.234375 53.78125 -53.828125 C 56.375 -52.429688 58.335938 -50.578125 59.671875 -48.265625 C 61.003906 -45.960938 61.921875 -43.40625 62.421875 -40.59375 C 62.929688 -37.789062 63.1875 -34.988281 63.1875 -32.1875 L 63.1875 -14.140625 L 68.25 -14.140625 L 68.25 0 L 41.046875 0 L 41.046875 -29.484375 C 41.046875 -30.703125 40.988281 -32.101562 40.875 -33.6875 C 40.769531 -35.28125 40.300781 -36.648438 39.46875 -37.796875 C 38.644531 -38.953125 37.148438 -39.53125 34.984375 -39.53125 C 33.191406 -39.53125 31.789062 -39.003906 30.78125 -37.953125 C 29.769531 -36.910156 29.082031 -35.632812 28.71875 -34.125 C 28.363281 -32.613281 28.1875 -31.066406 28.1875 -29.484375 L 28.1875 -14.140625 L 35.96875 -14.140625 Z M 35.96875 0 "/></g></g></g><g fill="#ff00ff" fill-opacity="1"><g transform="translate(523.672397, 333.750471)"><g><path d="M 8.421875 -36.9375 L 3.890625 -49.46875 C 5.328125 -50.332031 7.25 -51.375 9.65625 -52.59375 C 12.070312 -53.820312 14.8125 -54.882812 17.875 -55.78125 C 20.9375 -56.675781 24.125 -57.125 27.4375 -57.125 C 30.675781 -57.125 34.003906 -56.78125 37.421875 -56.09375 C 40.835938 -55.414062 44.003906 -54.226562 46.921875 -52.53125 C 49.835938 -50.84375 52.195312 -48.554688 54 -45.671875 C 55.800781 -42.796875 56.703125 -39.203125 56.703125 -34.890625 L 56.703125 -13.828125 L 63.1875 -13.828125 L 63.1875 0 L 40.0625 0 L 37.46875 -4.859375 C 36.175781 -3.054688 34.628906 -1.648438 32.828125 -0.640625 C 31.023438 0.359375 29.242188 1.054688 27.484375 1.453125 C 25.722656 1.847656 24.191406 2.046875 22.890625 2.046875 C 19.503906 2.046875 16.171875 1.414062 12.890625 0.15625 C 9.617188 -1.101562 6.921875 -3.0625 4.796875 -5.71875 C 2.679688 -8.382812 1.625 -11.804688 1.625 -15.984375 C 1.625 -20.085938 2.648438 -23.613281 4.703125 -26.5625 C 6.753906 -29.519531 9.488281 -31.804688 12.90625 -33.421875 C 16.320312 -35.046875 20.046875 -35.859375 24.078125 -35.859375 C 27.253906 -35.859375 29.757812 -35.316406 31.59375 -34.234375 C 33.425781 -33.148438 34.488281 -32.429688 34.78125 -32.078125 L 34.78125 -35.859375 C 34.78125 -38.304688 33.804688 -39.925781 31.859375 -40.71875 C 29.910156 -41.507812 27.460938 -41.90625 24.515625 -41.90625 C 21.347656 -41.90625 18.394531 -41.363281 15.65625 -40.28125 C 12.925781 -39.195312 10.515625 -38.082031 8.421875 -36.9375 Z M 34.78125 -15.546875 L 34.78125 -19.65625 C 34.632812 -19.945312 34.109375 -20.539062 33.203125 -21.4375 C 32.304688 -22.332031 30.707031 -22.78125 28.40625 -22.78125 C 26.238281 -22.78125 24.648438 -22.238281 23.640625 -21.15625 C 22.640625 -20.082031 22.140625 -18.71875 22.140625 -17.0625 C 22.140625 -15.550781 22.695312 -14.328125 23.8125 -13.390625 C 24.925781 -12.453125 26.273438 -11.984375 27.859375 -11.984375 C 29.515625 -11.984375 30.953125 -12.378906 32.171875 -13.171875 C 33.398438 -13.960938 34.269531 -14.753906 34.78125 -15.546875 Z M 34.78125 -15.546875 "/></g></g></g><g fill="#ff00ff" fill-opacity="1"><g transform="translate(588.472435, 333.750471)"><g><path d="M 34.234375 0 L 2.703125 0 L 2.703125 -14.140625 L 7.34375 -14.140625 L 7.34375 -67.0625 L 2.8125 -67.0625 L 2.8125 -81 L 27.859375 -81 L 27.859375 -14.140625 L 34.234375 -14.140625 Z M 34.234375 0 "/></g></g></g><g fill="#00ffff" fill-opacity="1"><g transform="translate(143.652788, 336.749535)"><g><path d="M 74.09375 -75.484375 L 74.09375 -47.40625 L 58.21875 -47.40625 L 58.21875 -61.234375 L 49.140625 -61.234375 L 49.140625 -14.359375 L 58.109375 -14.359375 L 58.109375 0 L 17.921875 0 L 17.921875 -14.359375 L 26.78125 -14.359375 L 26.78125 -61.234375 L 17.5 -61.234375 L 17.5 -47.40625 L 1.625 -47.40625 L 1.625 -75.484375 Z M 74.09375 -75.484375 "/></g></g></g><g fill="#00ffff" fill-opacity="1"><g transform="translate(219.360807, 336.749535)"><g><path d="M 47.84375 -17.921875 L 56.921875 -7.453125 C 52.953125 -3.992188 48.71875 -1.5625 44.21875 -0.15625 C 39.71875 1.238281 34.660156 1.9375 29.046875 1.9375 C 25.734375 1.9375 22.382812 1.378906 19 0.265625 C 15.625 -0.847656 12.546875 -2.570312 9.765625 -4.90625 C 6.992188 -7.25 4.765625 -10.273438 3.078125 -13.984375 C 1.390625 -17.691406 0.546875 -22.140625 0.546875 -27.328125 C 0.546875 -33.234375 1.835938 -38.289062 4.421875 -42.5 C 7.015625 -46.707031 10.503906 -49.925781 14.890625 -52.15625 C 19.285156 -54.394531 24.1875 -55.515625 29.59375 -55.515625 C 36 -55.515625 41.503906 -54.035156 46.109375 -51.078125 C 50.722656 -48.128906 53.820312 -44.390625 55.40625 -39.859375 C 55.832031 -38.628906 56.207031 -36.96875 56.53125 -34.875 C 56.863281 -32.789062 56.992188 -30.578125 56.921875 -28.234375 C 56.847656 -25.898438 56.414062 -23.6875 55.625 -21.59375 L 21.59375 -21.59375 C 21.8125 -20.664062 22.207031 -19.5 22.78125 -18.09375 C 23.363281 -16.6875 24.410156 -15.441406 25.921875 -14.359375 C 27.429688 -13.285156 29.695312 -12.75 32.71875 -12.75 C 34.59375 -12.75 36.863281 -13 39.53125 -13.5 C 42.195312 -14 44.96875 -15.472656 47.84375 -17.921875 Z M 21.921875 -32.296875 L 38.234375 -32.296875 C 38.234375 -33.660156 38.035156 -35.007812 37.640625 -36.34375 C 37.242188 -37.675781 36.488281 -38.773438 35.375 -39.640625 C 34.257812 -40.503906 32.546875 -40.9375 30.234375 -40.9375 C 28.078125 -40.9375 26.40625 -40.394531 25.21875 -39.3125 C 24.03125 -38.226562 23.203125 -37.019531 22.734375 -35.6875 C 22.265625 -34.363281 21.992188 -33.234375 21.921875 -32.296875 Z M 21.921875 -32.296875 "/></g></g></g><g fill="#00ffff" fill-opacity="1"><g transform="translate(277.89683, 336.749535)"><g><path d="M 33.265625 0 L 2.703125 0 L 2.703125 -14.140625 L 7.453125 -14.140625 L 7.453125 -39.953125 L 2.8125 -39.953125 L 2.8125 -54 L 23.109375 -54 L 26.359375 -47.09375 C 27.285156 -48.820312 28.328125 -50.421875 29.484375 -51.890625 C 30.640625 -53.367188 32.273438 -54.539062 34.390625 -55.40625 C 36.515625 -56.269531 39.414062 -56.703125 43.09375 -56.703125 L 43.09375 -37.265625 C 38.269531 -37.265625 34.523438 -36.453125 31.859375 -34.828125 C 29.191406 -33.210938 27.859375 -30.023438 27.859375 -25.265625 L 27.859375 -14.140625 L 33.265625 -14.140625 Z M 33.265625 0 "/></g></g></g><g fill="#00ffff" fill-opacity="1"><g transform="translate(322.608849, 336.749535)"><g><path d="M 34.78125 0 L 2.703125 0 L 2.703125 -14.140625 L 7.234375 -14.140625 L 7.234375 -39.640625 L 2.703125 -39.640625 L 2.703125 -53.890625 L 23.109375 -53.890625 L 25.484375 -47.515625 C 26.066406 -48.234375 26.984375 -49.203125 28.234375 -50.421875 C 29.492188 -51.648438 31.039062 -52.785156 32.875 -53.828125 C 34.71875 -54.878906 36.753906 -55.40625 38.984375 -55.40625 C 42.660156 -55.40625 45.5625 -54.9375 47.6875 -54 C 49.8125 -53.0625 51.429688 -51.976562 52.546875 -50.75 C 53.660156 -49.53125 54.503906 -48.488281 55.078125 -47.625 C 56.734375 -49.5 58.859375 -51.265625 61.453125 -52.921875 C 64.046875 -54.578125 67.210938 -55.40625 70.953125 -55.40625 C 75.347656 -55.40625 78.875 -54.679688 81.53125 -53.234375 C 84.195312 -51.796875 86.234375 -49.851562 87.640625 -47.40625 C 89.046875 -44.957031 89.984375 -42.1875 90.453125 -39.09375 C 90.921875 -36 91.15625 -32.796875 91.15625 -29.484375 L 91.15625 -14.578125 L 96.4375 -14.578125 L 96.4375 0 L 69.015625 0 L 69.015625 -26.453125 C 69.015625 -28.179688 69.03125 -30.085938 69.0625 -32.171875 C 69.101562 -34.265625 68.851562 -36.066406 68.3125 -37.578125 C 67.769531 -39.097656 66.632812 -39.859375 64.90625 -39.859375 C 62.601562 -39.859375 61.070312 -39.117188 60.3125 -37.640625 C 59.5625 -36.160156 59.1875 -34.269531 59.1875 -31.96875 L 59.1875 -14.46875 L 65.65625 -14.46875 L 65.65625 0 L 37.6875 0 L 37.6875 -27.546875 C 37.6875 -31.929688 37.46875 -35.078125 37.03125 -36.984375 C 36.601562 -38.898438 35.3125 -39.859375 33.15625 -39.859375 C 29.914062 -39.859375 28.296875 -37.695312 28.296875 -33.375 L 28.296875 -14.140625 L 34.78125 -14.140625 Z M 34.78125 0 "/></g></g></g><g fill="#00ffff" fill-opacity="1"><g transform="translate(420.672878, 336.749535)"><g><path d="M 5.71875 -69.765625 C 5.71875 -71.421875 6.164062 -73.09375 7.0625 -74.78125 C 7.96875 -76.476562 9.285156 -77.898438 11.015625 -79.046875 C 12.742188 -80.203125 14.867188 -80.78125 17.390625 -80.78125 C 19.910156 -80.78125 22.050781 -80.203125 23.8125 -79.046875 C 25.570312 -77.898438 26.921875 -76.476562 27.859375 -74.78125 C 28.796875 -73.09375 29.265625 -71.421875 29.265625 -69.765625 C 29.265625 -66.816406 28.238281 -64.257812 26.1875 -62.09375 C 24.132812 -59.9375 21.203125 -58.859375 17.390625 -58.859375 C 15.160156 -58.859375 13.160156 -59.414062 11.390625 -60.53125 C 9.628906 -61.644531 8.242188 -63.03125 7.234375 -64.6875 C 6.222656 -66.34375 5.71875 -68.035156 5.71875 -69.765625 Z M 32.9375 0 L 2.703125 0 L 2.703125 -14.140625 L 7.234375 -14.140625 L 7.234375 -39.953125 L 2.703125 -39.953125 L 2.703125 -54 L 27.75 -54 L 27.75 -14.140625 L 32.9375 -14.140625 Z M 32.9375 0 "/></g></g></g><g fill="#00ffff" fill-opacity="1"><g transform="translate(456.312891, 336.749535)"><g><path d="M 35.96875 0 L 2.703125 0 L 2.703125 -14.140625 L 7.234375 -14.140625 L 7.234375 -39.953125 L 2.703125 -39.953125 L 2.703125 -54 L 25.703125 -54 L 28.1875 -47.296875 C 30.0625 -49.816406 32.257812 -51.882812 34.78125 -53.5 C 37.300781 -55.125 40.25 -55.9375 43.625 -55.9375 C 47.800781 -55.9375 51.1875 -55.234375 53.78125 -53.828125 C 56.375 -52.429688 58.335938 -50.578125 59.671875 -48.265625 C 61.003906 -45.960938 61.921875 -43.40625 62.421875 -40.59375 C 62.929688 -37.789062 63.1875 -34.988281 63.1875 -32.1875 L 63.1875 -14.140625 L 68.25 -14.140625 L 68.25 0 L 41.046875 0 L 41.046875 -29.484375 C 41.046875 -30.703125 40.988281 -32.101562 40.875 -33.6875 C 40.769531 -35.28125 40.300781 -36.648438 39.46875 -37.796875 C 38.644531 -38.953125 37.148438 -39.53125 34.984375 -39.53125 C 33.191406 -39.53125 31.789062 -39.003906 30.78125 -37.953125 C 29.769531 -36.910156 29.082031 -35.632812 28.71875 -34.125 C 28.363281 -32.613281 28.1875 -31.066406 28.1875 -29.484375 L 28.1875 -14.140625 L 35.96875 -14.140625 Z M 35.96875 0 "/></g></g></g><g fill="#00ffff" fill-opacity="1"><g transform="translate(526.18891, 336.749535)"><g><path d="M 8.421875 -36.9375 L 3.890625 -49.46875 C 5.328125 -50.332031 7.25 -51.375 9.65625 -52.59375 C 12.070312 -53.820312 14.8125 -54.882812 17.875 -55.78125 C 20.9375 -56.675781 24.125 -57.125 27.4375 -57.125 C 30.675781 -57.125 34.003906 -56.78125 37.421875 -56.09375 C 40.835938 -55.414062 44.003906 -54.226562 46.921875 -52.53125 C 49.835938 -50.84375 52.195312 -48.554688 54 -45.671875 C 55.800781 -42.796875 56.703125 -39.203125 56.703125 -34.890625 L 56.703125 -13.828125 L 63.1875 -13.828125 L 63.1875 0 L 40.0625 0 L 37.46875 -4.859375 C 36.175781 -3.054688 34.628906 -1.648438 32.828125 -0.640625 C 31.023438 0.359375 29.242188 1.054688 27.484375 1.453125 C 25.722656 1.847656 24.191406 2.046875 22.890625 2.046875 C 19.503906 2.046875 16.171875 1.414062 12.890625 0.15625 C 9.617188 -1.101562 6.921875 -3.0625 4.796875 -5.71875 C 2.679688 -8.382812 1.625 -11.804688 1.625 -15.984375 C 1.625 -20.085938 2.648438 -23.613281 4.703125 -26.5625 C 6.753906 -29.519531 9.488281 -31.804688 12.90625 -33.421875 C 16.320312 -35.046875 20.046875 -35.859375 24.078125 -35.859375 C 27.253906 -35.859375 29.757812 -35.316406 31.59375 -34.234375 C 33.425781 -33.148438 34.488281 -32.429688 34.78125 -32.078125 L 34.78125 -35.859375 C 34.78125 -38.304688 33.804688 -39.925781 31.859375 -40.71875 C 29.910156 -41.507812 27.460938 -41.90625 24.515625 -41.90625 C 21.347656 -41.90625 18.394531 -41.363281 15.65625 -40.28125 C 12.925781 -39.195312 10.515625 -38.082031 8.421875 -36.9375 Z M 34.78125 -15.546875 L 34.78125 -19.65625 C 34.632812 -19.945312 34.109375 -20.539062 33.203125 -21.4375 C 32.304688 -22.332031 30.707031 -22.78125 28.40625 -22.78125 C 26.238281 -22.78125 24.648438 -22.238281 23.640625 -21.15625 C 22.640625 -20.082031 22.140625 -18.71875 22.140625 -17.0625 C 22.140625 -15.550781 22.695312 -14.328125 23.8125 -13.390625 C 24.925781 -12.453125 26.273438 -11.984375 27.859375 -11.984375 C 29.515625 -11.984375 30.953125 -12.378906 32.171875 -13.171875 C 33.398438 -13.960938 34.269531 -14.753906 34.78125 -15.546875 Z M 34.78125 -15.546875 "/></g></g></g><g fill="#00ffff" fill-opacity="1"><g transform="translate(590.988948, 336.749535)"><g><path d="M 34.234375 0 L 2.703125 0 L 2.703125 -14.140625 L 7.34375 -14.140625 L 7.34375 -67.0625 L 2.8125 -67.0625 L 2.8125 -81 L 27.859375 -81 L 27.859375 -14.140625 L 34.234375 -14.140625 Z M 34.234375 0 "/></g></g></g><g fill="#ff00ff" fill-opacity="1"><g transform="translate(117.968303, 484.500464)"><g><path d="M 2.703125 0 L 2.703125 -27.21875 L 22.78125 -27.21875 C 22.78125 -24.988281 23.265625 -23.171875 24.234375 -21.765625 C 25.210938 -20.359375 26.4375 -19.273438 27.90625 -18.515625 C 29.382812 -17.765625 30.878906 -17.242188 32.390625 -16.953125 C 33.910156 -16.671875 35.242188 -16.492188 36.390625 -16.421875 C 37.691406 -16.421875 39.039062 -16.546875 40.4375 -16.796875 C 41.84375 -17.046875 43.050781 -17.566406 44.0625 -18.359375 C 45.070312 -19.148438 45.578125 -20.300781 45.578125 -21.8125 C 45.578125 -23.039062 44.820312 -24.050781 43.3125 -24.84375 C 41.800781 -25.632812 39.820312 -26.390625 37.375 -27.109375 C 34.925781 -27.828125 32.222656 -28.597656 29.265625 -29.421875 C 26.316406 -30.253906 23.363281 -31.28125 20.40625 -32.5 C 17.457031 -33.726562 14.757812 -35.296875 12.3125 -37.203125 C 9.863281 -39.109375 7.882812 -41.429688 6.375 -44.171875 C 4.863281 -46.910156 4.109375 -50.257812 4.109375 -54.21875 C 4.109375 -58.25 4.9375 -61.722656 6.59375 -64.640625 C 8.25 -67.554688 10.390625 -69.945312 13.015625 -71.8125 C 15.640625 -73.6875 18.425781 -75.09375 21.375 -76.03125 C 24.332031 -76.96875 27.144531 -77.4375 29.8125 -77.4375 C 34.34375 -77.4375 38.695312 -76.609375 42.875 -74.953125 C 47.050781 -73.296875 50.21875 -70.453125 52.375 -66.421875 L 53.453125 -75.484375 L 72.03125 -75.484375 L 72.03125 -48.390625 L 52.484375 -48.390625 C 52.484375 -52.421875 51.132812 -55.515625 48.4375 -57.671875 C 45.738281 -59.828125 42.476562 -60.90625 38.65625 -60.90625 C 37.070312 -60.90625 35.4375 -60.421875 33.75 -59.453125 C 32.0625 -58.484375 31.21875 -57.0625 31.21875 -55.1875 C 31.21875 -53.601562 31.988281 -52.253906 33.53125 -51.140625 C 35.082031 -50.023438 37.132812 -49 39.6875 -48.0625 C 42.25 -47.125 45.039062 -46.164062 48.0625 -45.1875 C 51.082031 -44.21875 54.101562 -43.085938 57.125 -41.796875 C 60.15625 -40.503906 62.945312 -38.957031 65.5 -37.15625 C 68.0625 -35.351562 70.113281 -33.15625 71.65625 -30.5625 C 73.207031 -27.96875 73.984375 -24.875 73.984375 -21.28125 C 73.984375 -17.101562 73.117188 -13.535156 71.390625 -10.578125 C 69.660156 -7.628906 67.375 -5.269531 64.53125 -3.5 C 61.6875 -1.738281 58.585938 -0.445312 55.234375 0.375 C 51.890625 1.207031 48.597656 1.625 45.359375 1.625 C 39.890625 1.625 35.28125 0.582031 31.53125 -1.5 C 27.789062 -3.59375 24.875 -5.863281 22.78125 -8.3125 L 21.59375 0 Z M 2.703125 0 "/></g></g></g><g fill="#ff00ff" fill-opacity="1"><g transform="translate(194.648326, 484.500464)"><g><path d="M 35.96875 0 L 2.703125 0 L 2.703125 -14.140625 L 7.234375 -14.140625 L 7.234375 -39.953125 L 2.703125 -39.953125 L 2.703125 -54 L 25.703125 -54 L 28.1875 -47.296875 C 30.0625 -49.816406 32.257812 -51.882812 34.78125 -53.5 C 37.300781 -55.125 40.25 -55.9375 43.625 -55.9375 C 47.800781 -55.9375 51.1875 -55.234375 53.78125 -53.828125 C 56.375 -52.429688 58.335938 -50.578125 59.671875 -48.265625 C 61.003906 -45.960938 61.921875 -43.40625 62.421875 -40.59375 C 62.929688 -37.789062 63.1875 -34.988281 63.1875 -32.1875 L 63.1875 -14.140625 L 68.25 -14.140625 L 68.25 0 L 41.046875 0 L 41.046875 -29.484375 C 41.046875 -30.703125 40.988281 -32.101562 40.875 -33.6875 C 40.769531 -35.28125 40.300781 -36.648438 39.46875 -37.796875 C 38.644531 -38.953125 37.148438 -39.53125 34.984375 -39.53125 C 33.191406 -39.53125 31.789062 -39.003906 30.78125 -37.953125 C 29.769531 -36.910156 29.082031 -35.632812 28.71875 -34.125 C 28.363281 -32.613281 28.1875 -31.066406 28.1875 -29.484375 L 28.1875 -14.140625 L 35.96875 -14.140625 Z M 35.96875 0 "/></g></g></g><g fill="#ff00ff" fill-opacity="1"><g transform="translate(264.524345, 484.500464)"><g><path d="M 8.421875 -36.9375 L 3.890625 -49.46875 C 5.328125 -50.332031 7.25 -51.375 9.65625 -52.59375 C 12.070312 -53.820312 14.8125 -54.882812 17.875 -55.78125 C 20.9375 -56.675781 24.125 -57.125 27.4375 -57.125 C 30.675781 -57.125 34.003906 -56.78125 37.421875 -56.09375 C 40.835938 -55.414062 44.003906 -54.226562 46.921875 -52.53125 C 49.835938 -50.84375 52.195312 -48.554688 54 -45.671875 C 55.800781 -42.796875 56.703125 -39.203125 56.703125 -34.890625 L 56.703125 -13.828125 L 63.1875 -13.828125 L 63.1875 0 L 40.0625 0 L 37.46875 -4.859375 C 36.175781 -3.054688 34.628906 -1.648438 32.828125 -0.640625 C 31.023438 0.359375 29.242188 1.054688 27.484375 1.453125 C 25.722656 1.847656 24.191406 2.046875 22.890625 2.046875 C 19.503906 2.046875 16.171875 1.414062 12.890625 0.15625 C 9.617188 -1.101562 6.921875 -3.0625 4.796875 -5.71875 C 2.679688 -8.382812 1.625 -11.804688 1.625 -15.984375 C 1.625 -20.085938 2.648438 -23.613281 4.703125 -26.5625 C 6.753906 -29.519531 9.488281 -31.804688 12.90625 -33.421875 C 16.320312 -35.046875 20.046875 -35.859375 24.078125 -35.859375 C 27.253906 -35.859375 29.757812 -35.316406 31.59375 -34.234375 C 33.425781 -33.148438 34.488281 -32.429688 34.78125 -32.078125 L 34.78125 -35.859375 C 34.78125 -38.304688 33.804688 -39.925781 31.859375 -40.71875 C 29.910156 -41.507812 27.460938 -41.90625 24.515625 -41.90625 C 21.347656 -41.90625 18.394531 -41.363281 15.65625 -40.28125 C 12.925781 -39.195312 10.515625 -38.082031 8.421875 -36.9375 Z M 34.78125 -15.546875 L 34.78125 -19.65625 C 34.632812 -19.945312 34.109375 -20.539062 33.203125 -21.4375 C 32.304688 -22.332031 30.707031 -22.78125 28.40625 -22.78125 C 26.238281 -22.78125 24.648438 -22.238281 23.640625 -21.15625 C 22.640625 -20.082031 22.140625 -18.71875 22.140625 -17.0625 C 22.140625 -15.550781 22.695312 -14.328125 23.8125 -13.390625 C 24.925781 -12.453125 26.273438 -11.984375 27.859375 -11.984375 C 29.515625 -11.984375 30.953125 -12.378906 32.171875 -13.171875 C 33.398438 -13.960938 34.269531 -14.753906 34.78125 -15.546875 Z M 34.78125 -15.546875 "/></g></g></g><g fill="#ff00ff" fill-opacity="1"><g transform="translate(329.324372, 484.500464)"><g><path d="M 2.703125 7.890625 L 7.234375 7.890625 L 7.234375 -39.640625 L 2.703125 -39.640625 L 2.703125 -54 L 27.4375 -54 L 29.265625 -50.21875 C 30.273438 -51.007812 31.894531 -51.976562 34.125 -53.125 C 36.351562 -54.28125 39.09375 -54.859375 42.34375 -54.859375 C 47.957031 -54.859375 52.648438 -53.5625 56.421875 -50.96875 C 60.203125 -48.382812 63.046875 -44.945312 64.953125 -40.65625 C 66.867188 -36.375 67.828125 -31.675781 67.828125 -26.5625 C 67.828125 -20.875 66.742188 -15.941406 64.578125 -11.765625 C 62.421875 -7.597656 59.488281 -4.394531 55.78125 -2.15625 C 52.070312 0.0703125 47.878906 1.1875 43.203125 1.1875 C 40.242188 1.1875 37.753906 0.878906 35.734375 0.265625 C 33.722656 -0.335938 32.195312 -0.984375 31.15625 -1.671875 C 30.113281 -2.359375 29.445312 -2.8125 29.15625 -3.03125 L 29.15625 7.890625 L 34.984375 7.890625 L 34.984375 22.03125 L 2.703125 22.03125 Z M 44.609375 -26.359375 C 44.609375 -28.515625 44.28125 -30.617188 43.625 -32.671875 C 42.976562 -34.722656 42.078125 -36.394531 40.921875 -37.6875 C 39.773438 -38.988281 38.410156 -39.640625 36.828125 -39.640625 C 34.742188 -39.640625 32.890625 -38.394531 31.265625 -35.90625 C 29.648438 -33.425781 28.945312 -30.0625 29.15625 -25.8125 C 29.15625 -22.132812 29.945312 -19.054688 31.53125 -16.578125 C 33.113281 -14.097656 34.914062 -12.859375 36.9375 -12.859375 C 39.238281 -12.859375 41.09375 -14.082031 42.5 -16.53125 C 43.90625 -18.976562 44.609375 -22.253906 44.609375 -26.359375 Z M 44.609375 -26.359375 "/></g></g></g><g fill="#ff00ff" fill-opacity="1"><g transform="translate(398.228399, 484.500464)"><g><path d="M 2.703125 0 L 2.703125 -27.21875 L 22.78125 -27.21875 C 22.78125 -24.988281 23.265625 -23.171875 24.234375 -21.765625 C 25.210938 -20.359375 26.4375 -19.273438 27.90625 -18.515625 C 29.382812 -17.765625 30.878906 -17.242188 32.390625 -16.953125 C 33.910156 -16.671875 35.242188 -16.492188 36.390625 -16.421875 C 37.691406 -16.421875 39.039062 -16.546875 40.4375 -16.796875 C 41.84375 -17.046875 43.050781 -17.566406 44.0625 -18.359375 C 45.070312 -19.148438 45.578125 -20.300781 45.578125 -21.8125 C 45.578125 -23.039062 44.820312 -24.050781 43.3125 -24.84375 C 41.800781 -25.632812 39.820312 -26.390625 37.375 -27.109375 C 34.925781 -27.828125 32.222656 -28.597656 29.265625 -29.421875 C 26.316406 -30.253906 23.363281 -31.28125 20.40625 -32.5 C 17.457031 -33.726562 14.757812 -35.296875 12.3125 -37.203125 C 9.863281 -39.109375 7.882812 -41.429688 6.375 -44.171875 C 4.863281 -46.910156 4.109375 -50.257812 4.109375 -54.21875 C 4.109375 -58.25 4.9375 -61.722656 6.59375 -64.640625 C 8.25 -67.554688 10.390625 -69.945312 13.015625 -71.8125 C 15.640625 -73.6875 18.425781 -75.09375 21.375 -76.03125 C 24.332031 -76.96875 27.144531 -77.4375 29.8125 -77.4375 C 34.34375 -77.4375 38.695312 -76.609375 42.875 -74.953125 C 47.050781 -73.296875 50.21875 -70.453125 52.375 -66.421875 L 53.453125 -75.484375 L 72.03125 -75.484375 L 72.03125 -48.390625 L 52.484375 -48.390625 C 52.484375 -52.421875 51.132812 -55.515625 48.4375 -57.671875 C 45.738281 -59.828125 42.476562 -60.90625 38.65625 -60.90625 C 37.070312 -60.90625 35.4375 -60.421875 33.75 -59.453125 C 32.0625 -58.484375 31.21875 -57.0625 31.21875 -55.1875 C 31.21875 -53.601562 31.988281 -52.253906 33.53125 -51.140625 C 35.082031 -50.023438 37.132812 -49 39.6875 -48.0625 C 42.25 -47.125 45.039062 -46.164062 48.0625 -45.1875 C 51.082031 -44.21875 54.101562 -43.085938 57.125 -41.796875 C 60.15625 -40.503906 62.945312 -38.957031 65.5 -37.15625 C 68.0625 -35.351562 70.113281 -33.15625 71.65625 -30.5625 C 73.207031 -27.96875 73.984375 -24.875 73.984375 -21.28125 C 73.984375 -17.101562 73.117188 -13.535156 71.390625 -10.578125 C 69.660156 -7.628906 67.375 -5.269531 64.53125 -3.5 C 61.6875 -1.738281 58.585938 -0.445312 55.234375 0.375 C 51.890625 1.207031 48.597656 1.625 45.359375 1.625 C 39.890625 1.625 35.28125 0.582031 31.53125 -1.5 C 27.789062 -3.59375 24.875 -5.863281 22.78125 -8.3125 L 21.59375 0 Z M 2.703125 0 "/></g></g></g><g fill="#ff00ff" fill-opacity="1"><g transform="translate(474.908411, 484.500464)"><g><path d="M 36.609375 0 L 2.703125 0 L 2.703125 -14.140625 L 7.234375 -14.140625 L 7.234375 -66.953125 L 2.703125 -66.953125 L 2.703125 -81 L 28.84375 -81 L 28.84375 -47.296875 C 29.269531 -47.953125 30.328125 -48.976562 32.015625 -50.375 C 33.710938 -51.78125 35.785156 -53.054688 38.234375 -54.203125 C 40.679688 -55.359375 43.203125 -55.9375 45.796875 -55.9375 C 49.972656 -55.9375 53.316406 -55.234375 55.828125 -53.828125 C 58.347656 -52.429688 60.238281 -50.578125 61.5 -48.265625 C 62.757812 -45.960938 63.601562 -43.40625 64.03125 -40.59375 C 64.46875 -37.789062 64.6875 -34.988281 64.6875 -32.1875 L 64.6875 -14.140625 L 69.765625 -14.140625 L 69.765625 0 L 42.015625 0 L 42.015625 -29.375 C 42.015625 -30.601562 41.921875 -32.007812 41.734375 -33.59375 C 41.554688 -35.175781 41.035156 -36.539062 40.171875 -37.6875 C 39.304688 -38.84375 37.796875 -39.421875 35.640625 -39.421875 C 33.835938 -39.421875 32.429688 -38.894531 31.421875 -37.84375 C 30.421875 -36.800781 29.738281 -35.523438 29.375 -34.015625 C 29.019531 -32.503906 28.84375 -30.957031 28.84375 -29.375 L 28.84375 -14.140625 L 36.609375 -14.140625 Z M 36.609375 0 "/></g></g></g><g fill="#ff00ff" fill-opacity="1"><g transform="translate(546.296469, 484.500464)"><g><path d="M 31.3125 1.40625 C 27.425781 1.40625 23.679688 0.8125 20.078125 -0.375 C 16.484375 -1.5625 13.242188 -3.34375 10.359375 -5.71875 C 7.484375 -8.09375 5.21875 -11.082031 3.5625 -14.6875 C 1.90625 -18.289062 1.113281 -22.46875 1.1875 -27.21875 C 1.1875 -31.75 2.03125 -35.742188 3.71875 -39.203125 C 5.414062 -42.660156 7.664062 -45.59375 10.46875 -48 C 13.28125 -50.414062 16.429688 -52.234375 19.921875 -53.453125 C 23.410156 -54.679688 27.03125 -55.296875 30.78125 -55.296875 C 36.46875 -55.222656 41.5625 -54.066406 46.0625 -51.828125 C 50.5625 -49.597656 54.125 -46.378906 56.75 -42.171875 C 59.382812 -37.960938 60.734375 -32.832031 60.796875 -26.78125 C 60.867188 -20.800781 59.59375 -15.707031 56.96875 -11.5 C 54.34375 -7.289062 50.78125 -4.085938 46.28125 -1.890625 C 41.78125 0.304688 36.789062 1.40625 31.3125 1.40625 Z M 31.3125 -12.421875 C 33.625 -12.421875 35.425781 -13.804688 36.71875 -16.578125 C 38.007812 -19.347656 38.65625 -22.75 38.65625 -26.78125 C 38.65625 -30.8125 37.972656 -34.210938 36.609375 -36.984375 C 35.242188 -39.753906 33.300781 -41.175781 30.78125 -41.25 C 28.6875 -41.25 26.921875 -39.878906 25.484375 -37.140625 C 24.046875 -34.410156 23.328125 -31.066406 23.328125 -27.109375 C 23.328125 -22.710938 24.097656 -19.164062 25.640625 -16.46875 C 27.191406 -13.769531 29.082031 -12.421875 31.3125 -12.421875 Z M 31.3125 -12.421875 "/></g></g></g><g fill="#ff00ff" fill-opacity="1"><g transform="translate(608.28847, 484.500464)"><g><path d="M 1.625 -54 L 7.453125 -54 L 7.453125 -63.9375 L 27.328125 -70.3125 L 27.328125 -54 L 37.578125 -54 L 37.578125 -39.953125 L 27.328125 -39.953125 L 27.328125 -20.734375 C 27.328125 -19.515625 27.328125 -18.238281 27.328125 -16.90625 C 27.328125 -15.570312 27.5625 -14.4375 28.03125 -13.5 C 28.5 -12.5625 29.414062 -12.09375 30.78125 -12.09375 C 31.5 -12.09375 32.5625 -12.289062 33.96875 -12.6875 C 35.375 -13.082031 36.578125 -13.5 37.578125 -13.9375 L 37.578125 -0.109375 C 36.503906 0.328125 35.101562 0.6875 33.375 0.96875 C 31.644531 1.257812 29.953125 1.492188 28.296875 1.671875 C 26.640625 1.847656 25.378906 1.9375 24.515625 1.9375 C 20.484375 1.9375 17.316406 1.414062 15.015625 0.375 C 12.710938 -0.664062 11.035156 -2.191406 9.984375 -4.203125 C 8.941406 -6.222656 8.273438 -8.617188 7.984375 -11.390625 C 7.703125 -14.160156 7.523438 -17.273438 7.453125 -20.734375 L 7.453125 -39.953125 L 1.625 -39.953125 Z M 1.625 -54 "/></g></g></g><g fill="#00ffff" fill-opacity="1"><g transform="translate(120.484816, 487.499528)"><g><path d="M 2.703125 0 L 2.703125 -27.21875 L 22.78125 -27.21875 C 22.78125 -24.988281 23.265625 -23.171875 24.234375 -21.765625 C 25.210938 -20.359375 26.4375 -19.273438 27.90625 -18.515625 C 29.382812 -17.765625 30.878906 -17.242188 32.390625 -16.953125 C 33.910156 -16.671875 35.242188 -16.492188 36.390625 -16.421875 C 37.691406 -16.421875 39.039062 -16.546875 40.4375 -16.796875 C 41.84375 -17.046875 43.050781 -17.566406 44.0625 -18.359375 C 45.070312 -19.148438 45.578125 -20.300781 45.578125 -21.8125 C 45.578125 -23.039062 44.820312 -24.050781 43.3125 -24.84375 C 41.800781 -25.632812 39.820312 -26.390625 37.375 -27.109375 C 34.925781 -27.828125 32.222656 -28.597656 29.265625 -29.421875 C 26.316406 -30.253906 23.363281 -31.28125 20.40625 -32.5 C 17.457031 -33.726562 14.757812 -35.296875 12.3125 -37.203125 C 9.863281 -39.109375 7.882812 -41.429688 6.375 -44.171875 C 4.863281 -46.910156 4.109375 -50.257812 4.109375 -54.21875 C 4.109375 -58.25 4.9375 -61.722656 6.59375 -64.640625 C 8.25 -67.554688 10.390625 -69.945312 13.015625 -71.8125 C 15.640625 -73.6875 18.425781 -75.09375 21.375 -76.03125 C 24.332031 -76.96875 27.144531 -77.4375 29.8125 -77.4375 C 34.34375 -77.4375 38.695312 -76.609375 42.875 -74.953125 C 47.050781 -73.296875 50.21875 -70.453125 52.375 -66.421875 L 53.453125 -75.484375 L 72.03125 -75.484375 L 72.03125 -48.390625 L 52.484375 -48.390625 C 52.484375 -52.421875 51.132812 -55.515625 48.4375 -57.671875 C 45.738281 -59.828125 42.476562 -60.90625 38.65625 -60.90625 C 37.070312 -60.90625 35.4375 -60.421875 33.75 -59.453125 C 32.0625 -58.484375 31.21875 -57.0625 31.21875 -55.1875 C 31.21875 -53.601562 31.988281 -52.253906 33.53125 -51.140625 C 35.082031 -50.023438 37.132812 -49 39.6875 -48.0625 C 42.25 -47.125 45.039062 -46.164062 48.0625 -45.1875 C 51.082031 -44.21875 54.101562 -43.085938 57.125 -41.796875 C 60.15625 -40.503906 62.945312 -38.957031 65.5 -37.15625 C 68.0625 -35.351562 70.113281 -33.15625 71.65625 -30.5625 C 73.207031 -27.96875 73.984375 -24.875 73.984375 -21.28125 C 73.984375 -17.101562 73.117188 -13.535156 71.390625 -10.578125 C 69.660156 -7.628906 67.375 -5.269531 64.53125 -3.5 C 61.6875 -1.738281 58.585938 -0.445312 55.234375 0.375 C 51.890625 1.207031 48.597656 1.625 45.359375 1.625 C 39.890625 1.625 35.28125 0.582031 31.53125 -1.5 C 27.789062 -3.59375 24.875 -5.863281 22.78125 -8.3125 L 21.59375 0 Z M 2.703125 0 "/></g></g></g><g fill="#00ffff" fill-opacity="1"><g transform="translate(197.164839, 487.499528)"><g><path d="M 35.96875 0 L 2.703125 0 L 2.703125 -14.140625 L 7.234375 -14.140625 L 7.234375 -39.953125 L 2.703125 -39.953125 L 2.703125 -54 L 25.703125 -54 L 28.1875 -47.296875 C 30.0625 -49.816406 32.257812 -51.882812 34.78125 -53.5 C 37.300781 -55.125 40.25 -55.9375 43.625 -55.9375 C 47.800781 -55.9375 51.1875 -55.234375 53.78125 -53.828125 C 56.375 -52.429688 58.335938 -50.578125 59.671875 -48.265625 C 61.003906 -45.960938 61.921875 -43.40625 62.421875 -40.59375 C 62.929688 -37.789062 63.1875 -34.988281 63.1875 -32.1875 L 63.1875 -14.140625 L 68.25 -14.140625 L 68.25 0 L 41.046875 0 L 41.046875 -29.484375 C 41.046875 -30.703125 40.988281 -32.101562 40.875 -33.6875 C 40.769531 -35.28125 40.300781 -36.648438 39.46875 -37.796875 C 38.644531 -38.953125 37.148438 -39.53125 34.984375 -39.53125 C 33.191406 -39.53125 31.789062 -39.003906 30.78125 -37.953125 C 29.769531 -36.910156 29.082031 -35.632812 28.71875 -34.125 C 28.363281 -32.613281 28.1875 -31.066406 28.1875 -29.484375 L 28.1875 -14.140625 L 35.96875 -14.140625 Z M 35.96875 0 "/></g></g></g><g fill="#00ffff" fill-opacity="1"><g transform="translate(267.040858, 487.499528)"><g><path d="M 8.421875 -36.9375 L 3.890625 -49.46875 C 5.328125 -50.332031 7.25 -51.375 9.65625 -52.59375 C 12.070312 -53.820312 14.8125 -54.882812 17.875 -55.78125 C 20.9375 -56.675781 24.125 -57.125 27.4375 -57.125 C 30.675781 -57.125 34.003906 -56.78125 37.421875 -56.09375 C 40.835938 -55.414062 44.003906 -54.226562 46.921875 -52.53125 C 49.835938 -50.84375 52.195312 -48.554688 54 -45.671875 C 55.800781 -42.796875 56.703125 -39.203125 56.703125 -34.890625 L 56.703125 -13.828125 L 63.1875 -13.828125 L 63.1875 0 L 40.0625 0 L 37.46875 -4.859375 C 36.175781 -3.054688 34.628906 -1.648438 32.828125 -0.640625 C 31.023438 0.359375 29.242188 1.054688 27.484375 1.453125 C 25.722656 1.847656 24.191406 2.046875 22.890625 2.046875 C 19.503906 2.046875 16.171875 1.414062 12.890625 0.15625 C 9.617188 -1.101562 6.921875 -3.0625 4.796875 -5.71875 C 2.679688 -8.382812 1.625 -11.804688 1.625 -15.984375 C 1.625 -20.085938 2.648438 -23.613281 4.703125 -26.5625 C 6.753906 -29.519531 9.488281 -31.804688 12.90625 -33.421875 C 16.320312 -35.046875 20.046875 -35.859375 24.078125 -35.859375 C 27.253906 -35.859375 29.757812 -35.316406 31.59375 -34.234375 C 33.425781 -33.148438 34.488281 -32.429688 34.78125 -32.078125 L 34.78125 -35.859375 C 34.78125 -38.304688 33.804688 -39.925781 31.859375 -40.71875 C 29.910156 -41.507812 27.460938 -41.90625 24.515625 -41.90625 C 21.347656 -41.90625 18.394531 -41.363281 15.65625 -40.28125 C 12.925781 -39.195312 10.515625 -38.082031 8.421875 -36.9375 Z M 34.78125 -15.546875 L 34.78125 -19.65625 C 34.632812 -19.945312 34.109375 -20.539062 33.203125 -21.4375 C 32.304688 -22.332031 30.707031 -22.78125 28.40625 -22.78125 C 26.238281 -22.78125 24.648438 -22.238281 23.640625 -21.15625 C 22.640625 -20.082031 22.140625 -18.71875 22.140625 -17.0625 C 22.140625 -15.550781 22.695312 -14.328125 23.8125 -13.390625 C 24.925781 -12.453125 26.273438 -11.984375 27.859375 -11.984375 C 29.515625 -11.984375 30.953125 -12.378906 32.171875 -13.171875 C 33.398438 -13.960938 34.269531 -14.753906 34.78125 -15.546875 Z M 34.78125 -15.546875 "/></g></g></g><g fill="#00ffff" fill-opacity="1"><g transform="translate(331.840885, 487.499528)"><g><path d="M 2.703125 7.890625 L 7.234375 7.890625 L 7.234375 -39.640625 L 2.703125 -39.640625 L 2.703125 -54 L 27.4375 -54 L 29.265625 -50.21875 C 30.273438 -51.007812 31.894531 -51.976562 34.125 -53.125 C 36.351562 -54.28125 39.09375 -54.859375 42.34375 -54.859375 C 47.957031 -54.859375 52.648438 -53.5625 56.421875 -50.96875 C 60.203125 -48.382812 63.046875 -44.945312 64.953125 -40.65625 C 66.867188 -36.375 67.828125 -31.675781 67.828125 -26.5625 C 67.828125 -20.875 66.742188 -15.941406 64.578125 -11.765625 C 62.421875 -7.597656 59.488281 -4.394531 55.78125 -2.15625 C 52.070312 0.0703125 47.878906 1.1875 43.203125 1.1875 C 40.242188 1.1875 37.753906 0.878906 35.734375 0.265625 C 33.722656 -0.335938 32.195312 -0.984375 31.15625 -1.671875 C 30.113281 -2.359375 29.445312 -2.8125 29.15625 -3.03125 L 29.15625 7.890625 L 34.984375 7.890625 L 34.984375 22.03125 L 2.703125 22.03125 Z M 44.609375 -26.359375 C 44.609375 -28.515625 44.28125 -30.617188 43.625 -32.671875 C 42.976562 -34.722656 42.078125 -36.394531 40.921875 -37.6875 C 39.773438 -38.988281 38.410156 -39.640625 36.828125 -39.640625 C 34.742188 -39.640625 32.890625 -38.394531 31.265625 -35.90625 C 29.648438 -33.425781 28.945312 -30.0625 29.15625 -25.8125 C 29.15625 -22.132812 29.945312 -19.054688 31.53125 -16.578125 C 33.113281 -14.097656 34.914062 -12.859375 36.9375 -12.859375 C 39.238281 -12.859375 41.09375 -14.082031 42.5 -16.53125 C 43.90625 -18.976562 44.609375 -22.253906 44.609375 -26.359375 Z M 44.609375 -26.359375 "/></g></g></g><g fill="#00ffff" fill-opacity="1"><g transform="translate(400.744912, 487.499528)"><g><path d="M 2.703125 0 L 2.703125 -27.21875 L 22.78125 -27.21875 C 22.78125 -24.988281 23.265625 -23.171875 24.234375 -21.765625 C 25.210938 -20.359375 26.4375 -19.273438 27.90625 -18.515625 C 29.382812 -17.765625 30.878906 -17.242188 32.390625 -16.953125 C 33.910156 -16.671875 35.242188 -16.492188 36.390625 -16.421875 C 37.691406 -16.421875 39.039062 -16.546875 40.4375 -16.796875 C 41.84375 -17.046875 43.050781 -17.566406 44.0625 -18.359375 C 45.070312 -19.148438 45.578125 -20.300781 45.578125 -21.8125 C 45.578125 -23.039062 44.820312 -24.050781 43.3125 -24.84375 C 41.800781 -25.632812 39.820312 -26.390625 37.375 -27.109375 C 34.925781 -27.828125 32.222656 -28.597656 29.265625 -29.421875 C 26.316406 -30.253906 23.363281 -31.28125 20.40625 -32.5 C 17.457031 -33.726562 14.757812 -35.296875 12.3125 -37.203125 C 9.863281 -39.109375 7.882812 -41.429688 6.375 -44.171875 C 4.863281 -46.910156 4.109375 -50.257812 4.109375 -54.21875 C 4.109375 -58.25 4.9375 -61.722656 6.59375 -64.640625 C 8.25 -67.554688 10.390625 -69.945312 13.015625 -71.8125 C 15.640625 -73.6875 18.425781 -75.09375 21.375 -76.03125 C 24.332031 -76.96875 27.144531 -77.4375 29.8125 -77.4375 C 34.34375 -77.4375 38.695312 -76.609375 42.875 -74.953125 C 47.050781 -73.296875 50.21875 -70.453125 52.375 -66.421875 L 53.453125 -75.484375 L 72.03125 -75.484375 L 72.03125 -48.390625 L 52.484375 -48.390625 C 52.484375 -52.421875 51.132812 -55.515625 48.4375 -57.671875 C 45.738281 -59.828125 42.476562 -60.90625 38.65625 -60.90625 C 37.070312 -60.90625 35.4375 -60.421875 33.75 -59.453125 C 32.0625 -58.484375 31.21875 -57.0625 31.21875 -55.1875 C 31.21875 -53.601562 31.988281 -52.253906 33.53125 -51.140625 C 35.082031 -50.023438 37.132812 -49 39.6875 -48.0625 C 42.25 -47.125 45.039062 -46.164062 48.0625 -45.1875 C 51.082031 -44.21875 54.101562 -43.085938 57.125 -41.796875 C 60.15625 -40.503906 62.945312 -38.957031 65.5 -37.15625 C 68.0625 -35.351562 70.113281 -33.15625 71.65625 -30.5625 C 73.207031 -27.96875 73.984375 -24.875 73.984375 -21.28125 C 73.984375 -17.101562 73.117188 -13.535156 71.390625 -10.578125 C 69.660156 -7.628906 67.375 -5.269531 64.53125 -3.5 C 61.6875 -1.738281 58.585938 -0.445312 55.234375 0.375 C 51.890625 1.207031 48.597656 1.625 45.359375 1.625 C 39.890625 1.625 35.28125 0.582031 31.53125 -1.5 C 27.789062 -3.59375 24.875 -5.863281 22.78125 -8.3125 L 21.59375 0 Z M 2.703125 0 "/></g></g></g><g fill="#00ffff" fill-opacity="1"><g transform="translate(477.424924, 487.499528)"><g><path d="M 36.609375 0 L 2.703125 0 L 2.703125 -14.140625 L 7.234375 -14.140625 L 7.234375 -66.953125 L 2.703125 -66.953125 L 2.703125 -81 L 28.84375 -81 L 28.84375 -47.296875 C 29.269531 -47.953125 30.328125 -48.976562 32.015625 -50.375 C 33.710938 -51.78125 35.785156 -53.054688 38.234375 -54.203125 C 40.679688 -55.359375 43.203125 -55.9375 45.796875 -55.9375 C 49.972656 -55.9375 53.316406 -55.234375 55.828125 -53.828125 C 58.347656 -52.429688 60.238281 -50.578125 61.5 -48.265625 C 62.757812 -45.960938 63.601562 -43.40625 64.03125 -40.59375 C 64.46875 -37.789062 64.6875 -34.988281 64.6875 -32.1875 L 64.6875 -14.140625 L 69.765625 -14.140625 L 69.765625 0 L 42.015625 0 L 42.015625 -29.375 C 42.015625 -30.601562 41.921875 -32.007812 41.734375 -33.59375 C 41.554688 -35.175781 41.035156 -36.539062 40.171875 -37.6875 C 39.304688 -38.84375 37.796875 -39.421875 35.640625 -39.421875 C 33.835938 -39.421875 32.429688 -38.894531 31.421875 -37.84375 C 30.421875 -36.800781 29.738281 -35.523438 29.375 -34.015625 C 29.019531 -32.503906 28.84375 -30.957031 28.84375 -29.375 L 28.84375 -14.140625 L 36.609375 -14.140625 Z M 36.609375 0 "/></g></g></g><g fill="#00ffff" fill-opacity="1"><g transform="translate(548.812982, 487.499528)"><g><path d="M 31.3125 1.40625 C 27.425781 1.40625 23.679688 0.8125 20.078125 -0.375 C 16.484375 -1.5625 13.242188 -3.34375 10.359375 -5.71875 C 7.484375 -8.09375 5.21875 -11.082031 3.5625 -14.6875 C 1.90625 -18.289062 1.113281 -22.46875 1.1875 -27.21875 C 1.1875 -31.75 2.03125 -35.742188 3.71875 -39.203125 C 5.414062 -42.660156 7.664062 -45.59375 10.46875 -48 C 13.28125 -50.414062 16.429688 -52.234375 19.921875 -53.453125 C 23.410156 -54.679688 27.03125 -55.296875 30.78125 -55.296875 C 36.46875 -55.222656 41.5625 -54.066406 46.0625 -51.828125 C 50.5625 -49.597656 54.125 -46.378906 56.75 -42.171875 C 59.382812 -37.960938 60.734375 -32.832031 60.796875 -26.78125 C 60.867188 -20.800781 59.59375 -15.707031 56.96875 -11.5 C 54.34375 -7.289062 50.78125 -4.085938 46.28125 -1.890625 C 41.78125 0.304688 36.789062 1.40625 31.3125 1.40625 Z M 31.3125 -12.421875 C 33.625 -12.421875 35.425781 -13.804688 36.71875 -16.578125 C 38.007812 -19.347656 38.65625 -22.75 38.65625 -26.78125 C 38.65625 -30.8125 37.972656 -34.210938 36.609375 -36.984375 C 35.242188 -39.753906 33.300781 -41.175781 30.78125 -41.25 C 28.6875 -41.25 26.921875 -39.878906 25.484375 -37.140625 C 24.046875 -34.410156 23.328125 -31.066406 23.328125 -27.109375 C 23.328125 -22.710938 24.097656 -19.164062 25.640625 -16.46875 C 27.191406 -13.769531 29.082031 -12.421875 31.3125 -12.421875 Z M 31.3125 -12.421875 "/></g></g></g><g fill="#00ffff" fill-opacity="1"><g transform="translate(610.804983, 487.499528)"><g><path d="M 1.625 -54 L 7.453125 -54 L 7.453125 -63.9375 L 27.328125 -70.3125 L 27.328125 -54 L 37.578125 -54 L 37.578125 -39.953125 L 27.328125 -39.953125 L 27.328125 -20.734375 C 27.328125 -19.515625 27.328125 -18.238281 27.328125 -16.90625 C 27.328125 -15.570312 27.5625 -14.4375 28.03125 -13.5 C 28.5 -12.5625 29.414062 -12.09375 30.78125 -12.09375 C 31.5 -12.09375 32.5625 -12.289062 33.96875 -12.6875 C 35.375 -13.082031 36.578125 -13.5 37.578125 -13.9375 L 37.578125 -0.109375 C 36.503906 0.328125 35.101562 0.6875 33.375 0.96875 C 31.644531 1.257812 29.953125 1.492188 28.296875 1.671875 C 26.640625 1.847656 25.378906 1.9375 24.515625 1.9375 C 20.484375 1.9375 17.316406 1.414062 15.015625 0.375 C 12.710938 -0.664062 11.035156 -2.191406 9.984375 -4.203125 C 8.941406 -6.222656 8.273438 -8.617188 7.984375 -11.390625 C 7.703125 -14.160156 7.523438 -17.273438 7.453125 -20.734375 L 7.453125 -39.953125 L 1.625 -39.953125 Z M 1.625 -54 "/></g></g></g><g fill="#ffffff" fill-opacity="1"><g transform="translate(142.394531, 335.250003)"><g><path d="M 74.09375 -75.484375 L 74.09375 -47.40625 L 58.21875 -47.40625 L 58.21875 -61.234375 L 49.140625 -61.234375 L 49.140625 -14.359375 L 58.109375 -14.359375 L 58.109375 0 L 17.921875 0 L 17.921875 -14.359375 L 26.78125 -14.359375 L 26.78125 -61.234375 L 17.5 -61.234375 L 17.5 -47.40625 L 1.625 -47.40625 L 1.625 -75.484375 Z M 74.09375 -75.484375 "/></g></g></g><g fill="#ffffff" fill-opacity="1"><g transform="translate(218.10255, 335.250003)"><g><path d="M 47.84375 -17.921875 L 56.921875 -7.453125 C 52.953125 -3.992188 48.71875 -1.5625 44.21875 -0.15625 C 39.71875 1.238281 34.660156 1.9375 29.046875 1.9375 C 25.734375 1.9375 22.382812 1.378906 19 0.265625 C 15.625 -0.847656 12.546875 -2.570312 9.765625 -4.90625 C 6.992188 -7.25 4.765625 -10.273438 3.078125 -13.984375 C 1.390625 -17.691406 0.546875 -22.140625 0.546875 -27.328125 C 0.546875 -33.234375 1.835938 -38.289062 4.421875 -42.5 C 7.015625 -46.707031 10.503906 -49.925781 14.890625 -52.15625 C 19.285156 -54.394531 24.1875 -55.515625 29.59375 -55.515625 C 36 -55.515625 41.503906 -54.035156 46.109375 -51.078125 C 50.722656 -48.128906 53.820312 -44.390625 55.40625 -39.859375 C 55.832031 -38.628906 56.207031 -36.96875 56.53125 -34.875 C 56.863281 -32.789062 56.992188 -30.578125 56.921875 -28.234375 C 56.847656 -25.898438 56.414062 -23.6875 55.625 -21.59375 L 21.59375 -21.59375 C 21.8125 -20.664062 22.207031 -19.5 22.78125 -18.09375 C 23.363281 -16.6875 24.410156 -15.441406 25.921875 -14.359375 C 27.429688 -13.285156 29.695312 -12.75 32.71875 -12.75 C 34.59375 -12.75 36.863281 -13 39.53125 -13.5 C 42.195312 -14 44.96875 -15.472656 47.84375 -17.921875 Z M 21.921875 -32.296875 L 38.234375 -32.296875 C 38.234375 -33.660156 38.035156 -35.007812 37.640625 -36.34375 C 37.242188 -37.675781 36.488281 -38.773438 35.375 -39.640625 C 34.257812 -40.503906 32.546875 -40.9375 30.234375 -40.9375 C 28.078125 -40.9375 26.40625 -40.394531 25.21875 -39.3125 C 24.03125 -38.226562 23.203125 -37.019531 22.734375 -35.6875 C 22.265625 -34.363281 21.992188 -33.234375 21.921875 -32.296875 Z M 21.921875 -32.296875 "/></g></g></g><g fill="#ffffff" fill-opacity="1"><g transform="translate(276.638574, 335.250003)"><g><path d="M 33.265625 0 L 2.703125 0 L 2.703125 -14.140625 L 7.453125 -14.140625 L 7.453125 -39.953125 L 2.8125 -39.953125 L 2.8125 -54 L 23.109375 -54 L 26.359375 -47.09375 C 27.285156 -48.820312 28.328125 -50.421875 29.484375 -51.890625 C 30.640625 -53.367188 32.273438 -54.539062 34.390625 -55.40625 C 36.515625 -56.269531 39.414062 -56.703125 43.09375 -56.703125 L 43.09375 -37.265625 C 38.269531 -37.265625 34.523438 -36.453125 31.859375 -34.828125 C 29.191406 -33.210938 27.859375 -30.023438 27.859375 -25.265625 L 27.859375 -14.140625 L 33.265625 -14.140625 Z M 33.265625 0 "/></g></g></g><g fill="#ffffff" fill-opacity="1"><g transform="translate(321.350593, 335.250003)"><g><path d="M 34.78125 0 L 2.703125 0 L 2.703125 -14.140625 L 7.234375 -14.140625 L 7.234375 -39.640625 L 2.703125 -39.640625 L 2.703125 -53.890625 L 23.109375 -53.890625 L 25.484375 -47.515625 C 26.066406 -48.234375 26.984375 -49.203125 28.234375 -50.421875 C 29.492188 -51.648438 31.039062 -52.785156 32.875 -53.828125 C 34.71875 -54.878906 36.753906 -55.40625 38.984375 -55.40625 C 42.660156 -55.40625 45.5625 -54.9375 47.6875 -54 C 49.8125 -53.0625 51.429688 -51.976562 52.546875 -50.75 C 53.660156 -49.53125 54.503906 -48.488281 55.078125 -47.625 C 56.734375 -49.5 58.859375 -51.265625 61.453125 -52.921875 C 64.046875 -54.578125 67.210938 -55.40625 70.953125 -55.40625 C 75.347656 -55.40625 78.875 -54.679688 81.53125 -53.234375 C 84.195312 -51.796875 86.234375 -49.851562 87.640625 -47.40625 C 89.046875 -44.957031 89.984375 -42.1875 90.453125 -39.09375 C 90.921875 -36 91.15625 -32.796875 91.15625 -29.484375 L 91.15625 -14.578125 L 96.4375 -14.578125 L 96.4375 0 L 69.015625 0 L 69.015625 -26.453125 C 69.015625 -28.179688 69.03125 -30.085938 69.0625 -32.171875 C 69.101562 -34.265625 68.851562 -36.066406 68.3125 -37.578125 C 67.769531 -39.097656 66.632812 -39.859375 64.90625 -39.859375 C 62.601562 -39.859375 61.070312 -39.117188 60.3125 -37.640625 C 59.5625 -36.160156 59.1875 -34.269531 59.1875 -31.96875 L 59.1875 -14.46875 L 65.65625 -14.46875 L 65.65625 0 L 37.6875 0 L 37.6875 -27.546875 C 37.6875 -31.929688 37.46875 -35.078125 37.03125 -36.984375 C 36.601562 -38.898438 35.3125 -39.859375 33.15625 -39.859375 C 29.914062 -39.859375 28.296875 -37.695312 28.296875 -33.375 L 28.296875 -14.140625 L 34.78125 -14.140625 Z M 34.78125 0 "/></g></g></g><g fill="#ffffff" fill-opacity="1"><g transform="translate(419.414621, 335.250003)"><g><path d="M 5.71875 -69.765625 C 5.71875 -71.421875 6.164062 -73.09375 7.0625 -74.78125 C 7.96875 -76.476562 9.285156 -77.898438 11.015625 -79.046875 C 12.742188 -80.203125 14.867188 -80.78125 17.390625 -80.78125 C 19.910156 -80.78125 22.050781 -80.203125 23.8125 -79.046875 C 25.570312 -77.898438 26.921875 -76.476562 27.859375 -74.78125 C 28.796875 -73.09375 29.265625 -71.421875 29.265625 -69.765625 C 29.265625 -66.816406 28.238281 -64.257812 26.1875 -62.09375 C 24.132812 -59.9375 21.203125 -58.859375 17.390625 -58.859375 C 15.160156 -58.859375 13.160156 -59.414062 11.390625 -60.53125 C 9.628906 -61.644531 8.242188 -63.03125 7.234375 -64.6875 C 6.222656 -66.34375 5.71875 -68.035156 5.71875 -69.765625 Z M 32.9375 0 L 2.703125 0 L 2.703125 -14.140625 L 7.234375 -14.140625 L 7.234375 -39.953125 L 2.703125 -39.953125 L 2.703125 -54 L 27.75 -54 L 27.75 -14.140625 L 32.9375 -14.140625 Z M 32.9375 0 "/></g></g></g><g fill="#ffffff" fill-opacity="1"><g transform="translate(455.054635, 335.250003)"><g><path d="M 35.96875 0 L 2.703125 0 L 2.703125 -14.140625 L 7.234375 -14.140625 L 7.234375 -39.953125 L 2.703125 -39.953125 L 2.703125 -54 L 25.703125 -54 L 28.1875 -47.296875 C 30.0625 -49.816406 32.257812 -51.882812 34.78125 -53.5 C 37.300781 -55.125 40.25 -55.9375 43.625 -55.9375 C 47.800781 -55.9375 51.1875 -55.234375 53.78125 -53.828125 C 56.375 -52.429688 58.335938 -50.578125 59.671875 -48.265625 C 61.003906 -45.960938 61.921875 -43.40625 62.421875 -40.59375 C 62.929688 -37.789062 63.1875 -34.988281 63.1875 -32.1875 L 63.1875 -14.140625 L 68.25 -14.140625 L 68.25 0 L 41.046875 0 L 41.046875 -29.484375 C 41.046875 -30.703125 40.988281 -32.101562 40.875 -33.6875 C 40.769531 -35.28125 40.300781 -36.648438 39.46875 -37.796875 C 38.644531 -38.953125 37.148438 -39.53125 34.984375 -39.53125 C 33.191406 -39.53125 31.789062 -39.003906 30.78125 -37.953125 C 29.769531 -36.910156 29.082031 -35.632812 28.71875 -34.125 C 28.363281 -32.613281 28.1875 -31.066406 28.1875 -29.484375 L 28.1875 -14.140625 L 35.96875 -14.140625 Z M 35.96875 0 "/></g></g></g><g fill="#ffffff" fill-opacity="1"><g transform="translate(524.930654, 335.250003)"><g><path d="M 8.421875 -36.9375 L 3.890625 -49.46875 C 5.328125 -50.332031 7.25 -51.375 9.65625 -52.59375 C 12.070312 -53.820312 14.8125 -54.882812 17.875 -55.78125 C 20.9375 -56.675781 24.125 -57.125 27.4375 -57.125 C 30.675781 -57.125 34.003906 -56.78125 37.421875 -56.09375 C 40.835938 -55.414062 44.003906 -54.226562 46.921875 -52.53125 C 49.835938 -50.84375 52.195312 -48.554688 54 -45.671875 C 55.800781 -42.796875 56.703125 -39.203125 56.703125 -34.890625 L 56.703125 -13.828125 L 63.1875 -13.828125 L 63.1875 0 L 40.0625 0 L 37.46875 -4.859375 C 36.175781 -3.054688 34.628906 -1.648438 32.828125 -0.640625 C 31.023438 0.359375 29.242188 1.054688 27.484375 1.453125 C 25.722656 1.847656 24.191406 2.046875 22.890625 2.046875 C 19.503906 2.046875 16.171875 1.414062 12.890625 0.15625 C 9.617188 -1.101562 6.921875 -3.0625 4.796875 -5.71875 C 2.679688 -8.382812 1.625 -11.804688 1.625 -15.984375 C 1.625 -20.085938 2.648438 -23.613281 4.703125 -26.5625 C 6.753906 -29.519531 9.488281 -31.804688 12.90625 -33.421875 C 16.320312 -35.046875 20.046875 -35.859375 24.078125 -35.859375 C 27.253906 -35.859375 29.757812 -35.316406 31.59375 -34.234375 C 33.425781 -33.148438 34.488281 -32.429688 34.78125 -32.078125 L 34.78125 -35.859375 C 34.78125 -38.304688 33.804688 -39.925781 31.859375 -40.71875 C 29.910156 -41.507812 27.460938 -41.90625 24.515625 -41.90625 C 21.347656 -41.90625 18.394531 -41.363281 15.65625 -40.28125 C 12.925781 -39.195312 10.515625 -38.082031 8.421875 -36.9375 Z M 34.78125 -15.546875 L 34.78125 -19.65625 C 34.632812 -19.945312 34.109375 -20.539062 33.203125 -21.4375 C 32.304688 -22.332031 30.707031 -22.78125 28.40625 -22.78125 C 26.238281 -22.78125 24.648438 -22.238281 23.640625 -21.15625 C 22.640625 -20.082031 22.140625 -18.71875 22.140625 -17.0625 C 22.140625 -15.550781 22.695312 -14.328125 23.8125 -13.390625 C 24.925781 -12.453125 26.273438 -11.984375 27.859375 -11.984375 C 29.515625 -11.984375 30.953125 -12.378906 32.171875 -13.171875 C 33.398438 -13.960938 34.269531 -14.753906 34.78125 -15.546875 Z M 34.78125 -15.546875 "/></g></g></g><g fill="#ffffff" fill-opacity="1"><g transform="translate(589.730692, 335.250003)"><g><path d="M 34.234375 0 L 2.703125 0 L 2.703125 -14.140625 L 7.34375 -14.140625 L 7.34375 -67.0625 L 2.8125 -67.0625 L 2.8125 -81 L 27.859375 -81 L 27.859375 -14.140625 L 34.234375 -14.140625 Z M 34.234375 0 "/></g></g></g><g fill="#ffffff" fill-opacity="1"><g transform="translate(119.22656, 485.999996)"><g><path d="M 2.703125 0 L 2.703125 -27.21875 L 22.78125 -27.21875 C 22.78125 -24.988281 23.265625 -23.171875 24.234375 -21.765625 C 25.210938 -20.359375 26.4375 -19.273438 27.90625 -18.515625 C 29.382812 -17.765625 30.878906 -17.242188 32.390625 -16.953125 C 33.910156 -16.671875 35.242188 -16.492188 36.390625 -16.421875 C 37.691406 -16.421875 39.039062 -16.546875 40.4375 -16.796875 C 41.84375 -17.046875 43.050781 -17.566406 44.0625 -18.359375 C 45.070312 -19.148438 45.578125 -20.300781 45.578125 -21.8125 C 45.578125 -23.039062 44.820312 -24.050781 43.3125 -24.84375 C 41.800781 -25.632812 39.820312 -26.390625 37.375 -27.109375 C 34.925781 -27.828125 32.222656 -28.597656 29.265625 -29.421875 C 26.316406 -30.253906 23.363281 -31.28125 20.40625 -32.5 C 17.457031 -33.726562 14.757812 -35.296875 12.3125 -37.203125 C 9.863281 -39.109375 7.882812 -41.429688 6.375 -44.171875 C 4.863281 -46.910156 4.109375 -50.257812 4.109375 -54.21875 C 4.109375 -58.25 4.9375 -61.722656 6.59375 -64.640625 C 8.25 -67.554688 10.390625 -69.945312 13.015625 -71.8125 C 15.640625 -73.6875 18.425781 -75.09375 21.375 -76.03125 C 24.332031 -76.96875 27.144531 -77.4375 29.8125 -77.4375 C 34.34375 -77.4375 38.695312 -76.609375 42.875 -74.953125 C 47.050781 -73.296875 50.21875 -70.453125 52.375 -66.421875 L 53.453125 -75.484375 L 72.03125 -75.484375 L 72.03125 -48.390625 L 52.484375 -48.390625 C 52.484375 -52.421875 51.132812 -55.515625 48.4375 -57.671875 C 45.738281 -59.828125 42.476562 -60.90625 38.65625 -60.90625 C 37.070312 -60.90625 35.4375 -60.421875 33.75 -59.453125 C 32.0625 -58.484375 31.21875 -57.0625 31.21875 -55.1875 C 31.21875 -53.601562 31.988281 -52.253906 33.53125 -51.140625 C 35.082031 -50.023438 37.132812 -49 39.6875 -48.0625 C 42.25 -47.125 45.039062 -46.164062 48.0625 -45.1875 C 51.082031 -44.21875 54.101562 -43.085938 57.125 -41.796875 C 60.15625 -40.503906 62.945312 -38.957031 65.5 -37.15625 C 68.0625 -35.351562 70.113281 -33.15625 71.65625 -30.5625 C 73.207031 -27.96875 73.984375 -24.875 73.984375 -21.28125 C 73.984375 -17.101562 73.117188 -13.535156 71.390625 -10.578125 C 69.660156 -7.628906 67.375 -5.269531 64.53125 -3.5 C 61.6875 -1.738281 58.585938 -0.445312 55.234375 0.375 C 51.890625 1.207031 48.597656 1.625 45.359375 1.625 C 39.890625 1.625 35.28125 0.582031 31.53125 -1.5 C 27.789062 -3.59375 24.875 -5.863281 22.78125 -8.3125 L 21.59375 0 Z M 2.703125 0 "/></g></g></g><g fill="#ffffff" fill-opacity="1"><g transform="translate(195.906583, 485.999996)"><g><path d="M 35.96875 0 L 2.703125 0 L 2.703125 -14.140625 L 7.234375 -14.140625 L 7.234375 -39.953125 L 2.703125 -39.953125 L 2.703125 -54 L 25.703125 -54 L 28.1875 -47.296875 C 30.0625 -49.816406 32.257812 -51.882812 34.78125 -53.5 C 37.300781 -55.125 40.25 -55.9375 43.625 -55.9375 C 47.800781 -55.9375 51.1875 -55.234375 53.78125 -53.828125 C 56.375 -52.429688 58.335938 -50.578125 59.671875 -48.265625 C 61.003906 -45.960938 61.921875 -43.40625 62.421875 -40.59375 C 62.929688 -37.789062 63.1875 -34.988281 63.1875 -32.1875 L 63.1875 -14.140625 L 68.25 -14.140625 L 68.25 0 L 41.046875 0 L 41.046875 -29.484375 C 41.046875 -30.703125 40.988281 -32.101562 40.875 -33.6875 C 40.769531 -35.28125 40.300781 -36.648438 39.46875 -37.796875 C 38.644531 -38.953125 37.148438 -39.53125 34.984375 -39.53125 C 33.191406 -39.53125 31.789062 -39.003906 30.78125 -37.953125 C 29.769531 -36.910156 29.082031 -35.632812 28.71875 -34.125 C 28.363281 -32.613281 28.1875 -31.066406 28.1875 -29.484375 L 28.1875 -14.140625 L 35.96875 -14.140625 Z M 35.96875 0 "/></g></g></g><g fill="#ffffff" fill-opacity="1"><g transform="translate(265.782602, 485.999996)"><g><path d="M 8.421875 -36.9375 L 3.890625 -49.46875 C 5.328125 -50.332031 7.25 -51.375 9.65625 -52.59375 C 12.070312 -53.820312 14.8125 -54.882812 17.875 -55.78125 C 20.9375 -56.675781 24.125 -57.125 27.4375 -57.125 C 30.675781 -57.125 34.003906 -56.78125 37.421875 -56.09375 C 40.835938 -55.414062 44.003906 -54.226562 46.921875 -52.53125 C 49.835938 -50.84375 52.195312 -48.554688 54 -45.671875 C 55.800781 -42.796875 56.703125 -39.203125 56.703125 -34.890625 L 56.703125 -13.828125 L 63.1875 -13.828125 L 63.1875 0 L 40.0625 0 L 37.46875 -4.859375 C 36.175781 -3.054688 34.628906 -1.648438 32.828125 -0.640625 C 31.023438 0.359375 29.242188 1.054688 27.484375 1.453125 C 25.722656 1.847656 24.191406 2.046875 22.890625 2.046875 C 19.503906 2.046875 16.171875 1.414062 12.890625 0.15625 C 9.617188 -1.101562 6.921875 -3.0625 4.796875 -5.71875 C 2.679688 -8.382812 1.625 -11.804688 1.625 -15.984375 C 1.625 -20.085938 2.648438 -23.613281 4.703125 -26.5625 C 6.753906 -29.519531 9.488281 -31.804688 12.90625 -33.421875 C 16.320312 -35.046875 20.046875 -35.859375 24.078125 -35.859375 C 27.253906 -35.859375 29.757812 -35.316406 31.59375 -34.234375 C 33.425781 -33.148438 34.488281 -32.429688 34.78125 -32.078125 L 34.78125 -35.859375 C 34.78125 -38.304688 33.804688 -39.925781 31.859375 -40.71875 C 29.910156 -41.507812 27.460938 -41.90625 24.515625 -41.90625 C 21.347656 -41.90625 18.394531 -41.363281 15.65625 -40.28125 C 12.925781 -39.195312 10.515625 -38.082031 8.421875 -36.9375 Z M 34.78125 -15.546875 L 34.78125 -19.65625 C 34.632812 -19.945312 34.109375 -20.539062 33.203125 -21.4375 C 32.304688 -22.332031 30.707031 -22.78125 28.40625 -22.78125 C 26.238281 -22.78125 24.648438 -22.238281 23.640625 -21.15625 C 22.640625 -20.082031 22.140625 -18.71875 22.140625 -17.0625 C 22.140625 -15.550781 22.695312 -14.328125 23.8125 -13.390625 C 24.925781 -12.453125 26.273438 -11.984375 27.859375 -11.984375 C 29.515625 -11.984375 30.953125 -12.378906 32.171875 -13.171875 C 33.398438 -13.960938 34.269531 -14.753906 34.78125 -15.546875 Z M 34.78125 -15.546875 "/></g></g></g><g fill="#ffffff" fill-opacity="1"><g transform="translate(330.582629, 485.999996)"><g><path d="M 2.703125 7.890625 L 7.234375 7.890625 L 7.234375 -39.640625 L 2.703125 -39.640625 L 2.703125 -54 L 27.4375 -54 L 29.265625 -50.21875 C 30.273438 -51.007812 31.894531 -51.976562 34.125 -53.125 C 36.351562 -54.28125 39.09375 -54.859375 42.34375 -54.859375 C 47.957031 -54.859375 52.648438 -53.5625 56.421875 -50.96875 C 60.203125 -48.382812 63.046875 -44.945312 64.953125 -40.65625 C 66.867188 -36.375 67.828125 -31.675781 67.828125 -26.5625 C 67.828125 -20.875 66.742188 -15.941406 64.578125 -11.765625 C 62.421875 -7.597656 59.488281 -4.394531 55.78125 -2.15625 C 52.070312 0.0703125 47.878906 1.1875 43.203125 1.1875 C 40.242188 1.1875 37.753906 0.878906 35.734375 0.265625 C 33.722656 -0.335938 32.195312 -0.984375 31.15625 -1.671875 C 30.113281 -2.359375 29.445312 -2.8125 29.15625 -3.03125 L 29.15625 7.890625 L 34.984375 7.890625 L 34.984375 22.03125 L 2.703125 22.03125 Z M 44.609375 -26.359375 C 44.609375 -28.515625 44.28125 -30.617188 43.625 -32.671875 C 42.976562 -34.722656 42.078125 -36.394531 40.921875 -37.6875 C 39.773438 -38.988281 38.410156 -39.640625 36.828125 -39.640625 C 34.742188 -39.640625 32.890625 -38.394531 31.265625 -35.90625 C 29.648438 -33.425781 28.945312 -30.0625 29.15625 -25.8125 C 29.15625 -22.132812 29.945312 -19.054688 31.53125 -16.578125 C 33.113281 -14.097656 34.914062 -12.859375 36.9375 -12.859375 C 39.238281 -12.859375 41.09375 -14.082031 42.5 -16.53125 C 43.90625 -18.976562 44.609375 -22.253906 44.609375 -26.359375 Z M 44.609375 -26.359375 "/></g></g></g><g fill="#ffffff" fill-opacity="1"><g transform="translate(399.486655, 485.999996)"><g><path d="M 2.703125 0 L 2.703125 -27.21875 L 22.78125 -27.21875 C 22.78125 -24.988281 23.265625 -23.171875 24.234375 -21.765625 C 25.210938 -20.359375 26.4375 -19.273438 27.90625 -18.515625 C 29.382812 -17.765625 30.878906 -17.242188 32.390625 -16.953125 C 33.910156 -16.671875 35.242188 -16.492188 36.390625 -16.421875 C 37.691406 -16.421875 39.039062 -16.546875 40.4375 -16.796875 C 41.84375 -17.046875 43.050781 -17.566406 44.0625 -18.359375 C 45.070312 -19.148438 45.578125 -20.300781 45.578125 -21.8125 C 45.578125 -23.039062 44.820312 -24.050781 43.3125 -24.84375 C 41.800781 -25.632812 39.820312 -26.390625 37.375 -27.109375 C 34.925781 -27.828125 32.222656 -28.597656 29.265625 -29.421875 C 26.316406 -30.253906 23.363281 -31.28125 20.40625 -32.5 C 17.457031 -33.726562 14.757812 -35.296875 12.3125 -37.203125 C 9.863281 -39.109375 7.882812 -41.429688 6.375 -44.171875 C 4.863281 -46.910156 4.109375 -50.257812 4.109375 -54.21875 C 4.109375 -58.25 4.9375 -61.722656 6.59375 -64.640625 C 8.25 -67.554688 10.390625 -69.945312 13.015625 -71.8125 C 15.640625 -73.6875 18.425781 -75.09375 21.375 -76.03125 C 24.332031 -76.96875 27.144531 -77.4375 29.8125 -77.4375 C 34.34375 -77.4375 38.695312 -76.609375 42.875 -74.953125 C 47.050781 -73.296875 50.21875 -70.453125 52.375 -66.421875 L 53.453125 -75.484375 L 72.03125 -75.484375 L 72.03125 -48.390625 L 52.484375 -48.390625 C 52.484375 -52.421875 51.132812 -55.515625 48.4375 -57.671875 C 45.738281 -59.828125 42.476562 -60.90625 38.65625 -60.90625 C 37.070312 -60.90625 35.4375 -60.421875 33.75 -59.453125 C 32.0625 -58.484375 31.21875 -57.0625 31.21875 -55.1875 C 31.21875 -53.601562 31.988281 -52.253906 33.53125 -51.140625 C 35.082031 -50.023438 37.132812 -49 39.6875 -48.0625 C 42.25 -47.125 45.039062 -46.164062 48.0625 -45.1875 C 51.082031 -44.21875 54.101562 -43.085938 57.125 -41.796875 C 60.15625 -40.503906 62.945312 -38.957031 65.5 -37.15625 C 68.0625 -35.351562 70.113281 -33.15625 71.65625 -30.5625 C 73.207031 -27.96875 73.984375 -24.875 73.984375 -21.28125 C 73.984375 -17.101562 73.117188 -13.535156 71.390625 -10.578125 C 69.660156 -7.628906 67.375 -5.269531 64.53125 -3.5 C 61.6875 -1.738281 58.585938 -0.445312 55.234375 0.375 C 51.890625 1.207031 48.597656 1.625 45.359375 1.625 C 39.890625 1.625 35.28125 0.582031 31.53125 -1.5 C 27.789062 -3.59375 24.875 -5.863281 22.78125 -8.3125 L 21.59375 0 Z M 2.703125 0 "/></g></g></g><g fill="#ffffff" fill-opacity="1"><g transform="translate(476.166667, 485.999996)"><g><path d="M 36.609375 0 L 2.703125 0 L 2.703125 -14.140625 L 7.234375 -14.140625 L 7.234375 -66.953125 L 2.703125 -66.953125 L 2.703125 -81 L 28.84375 -81 L 28.84375 -47.296875 C 29.269531 -47.953125 30.328125 -48.976562 32.015625 -50.375 C 33.710938 -51.78125 35.785156 -53.054688 38.234375 -54.203125 C 40.679688 -55.359375 43.203125 -55.9375 45.796875 -55.9375 C 49.972656 -55.9375 53.316406 -55.234375 55.828125 -53.828125 C 58.347656 -52.429688 60.238281 -50.578125 61.5 -48.265625 C 62.757812 -45.960938 63.601562 -43.40625 64.03125 -40.59375 C 64.46875 -37.789062 64.6875 -34.988281 64.6875 -32.1875 L 64.6875 -14.140625 L 69.765625 -14.140625 L 69.765625 0 L 42.015625 0 L 42.015625 -29.375 C 42.015625 -30.601562 41.921875 -32.007812 41.734375 -33.59375 C 41.554688 -35.175781 41.035156 -36.539062 40.171875 -37.6875 C 39.304688 -38.84375 37.796875 -39.421875 35.640625 -39.421875 C 33.835938 -39.421875 32.429688 -38.894531 31.421875 -37.84375 C 30.421875 -36.800781 29.738281 -35.523438 29.375 -34.015625 C 29.019531 -32.503906 28.84375 -30.957031 28.84375 -29.375 L 28.84375 -14.140625 L 36.609375 -14.140625 Z M 36.609375 0 "/></g></g></g><g fill="#ffffff" fill-opacity="1"><g transform="translate(547.554725, 485.999996)"><g><path d="M 31.3125 1.40625 C 27.425781 1.40625 23.679688 0.8125 20.078125 -0.375 C 16.484375 -1.5625 13.242188 -3.34375 10.359375 -5.71875 C 7.484375 -8.09375 5.21875 -11.082031 3.5625 -14.6875 C 1.90625 -18.289062 1.113281 -22.46875 1.1875 -27.21875 C 1.1875 -31.75 2.03125 -35.742188 3.71875 -39.203125 C 5.414062 -42.660156 7.664062 -45.59375 10.46875 -48 C 13.28125 -50.414062 16.429688 -52.234375 19.921875 -53.453125 C 23.410156 -54.679688 27.03125 -55.296875 30.78125 -55.296875 C 36.46875 -55.222656 41.5625 -54.066406 46.0625 -51.828125 C 50.5625 -49.597656 54.125 -46.378906 56.75 -42.171875 C 59.382812 -37.960938 60.734375 -32.832031 60.796875 -26.78125 C 60.867188 -20.800781 59.59375 -15.707031 56.96875 -11.5 C 54.34375 -7.289062 50.78125 -4.085938 46.28125 -1.890625 C 41.78125 0.304688 36.789062 1.40625 31.3125 1.40625 Z M 31.3125 -12.421875 C 33.625 -12.421875 35.425781 -13.804688 36.71875 -16.578125 C 38.007812 -19.347656 38.65625 -22.75 38.65625 -26.78125 C 38.65625 -30.8125 37.972656 -34.210938 36.609375 -36.984375 C 35.242188 -39.753906 33.300781 -41.175781 30.78125 -41.25 C 28.6875 -41.25 26.921875 -39.878906 25.484375 -37.140625 C 24.046875 -34.410156 23.328125 -31.066406 23.328125 -27.109375 C 23.328125 -22.710938 24.097656 -19.164062 25.640625 -16.46875 C 27.191406 -13.769531 29.082031 -12.421875 31.3125 -12.421875 Z M 31.3125 -12.421875 "/></g></g></g><g fill="#ffffff" fill-opacity="1"><g transform="translate(609.546727, 485.999996)"><g><path d="M 1.625 -54 L 7.453125 -54 L 7.453125 -63.9375 L 27.328125 -70.3125 L 27.328125 -54 L 37.578125 -54 L 37.578125 -39.953125 L 27.328125 -39.953125 L 27.328125 -20.734375 C 27.328125 -19.515625 27.328125 -18.238281 27.328125 -16.90625 C 27.328125 -15.570312 27.5625 -14.4375 28.03125 -13.5 C 28.5 -12.5625 29.414062 -12.09375 30.78125 -12.09375 C 31.5 -12.09375 32.5625 -12.289062 33.96875 -12.6875 C 35.375 -13.082031 36.578125 -13.5 37.578125 -13.9375 L 37.578125 -0.109375 C 36.503906 0.328125 35.101562 0.6875 33.375 0.96875 C 31.644531 1.257812 29.953125 1.492188 28.296875 1.671875 C 26.640625 1.847656 25.378906 1.9375 24.515625 1.9375 C 20.484375 1.9375 17.316406 1.414062 15.015625 0.375 C 12.710938 -0.664062 11.035156 -2.191406 9.984375 -4.203125 C 8.941406 -6.222656 8.273438 -8.617188 7.984375 -11.390625 C 7.703125 -14.160156 7.523438 -17.273438 7.453125 -20.734375 L 7.453125 -39.953125 L 1.625 -39.953125 Z M 1.625 -54 "/></g></g></g></svg>