<svg xmlns="http://www.w3.org/2000/svg" xmlns:xlink="http://www.w3.org/1999/xlink" width="1024" zoomAndPan="magnify" viewBox="0 0 768 767.999994" height="1024" preserveAspectRatio="xMidYMid meet" version="1.0"><defs><g/></defs><g fill="#ff00ff" fill-opacity="1"><g transform="translate(264.640185, 409.125468)"><g><path d="M 41.796875 22.6875 L 14.90625 22.6875 L 14.90625 -87.90625 L 41.90625 -87.90625 L 41.90625 -73.765625 L 35.421875 -73.765625 L 35.421875 8.53125 L 41.796875 8.53125 Z M 41.796875 22.6875 "/></g></g></g><g fill="#ff00ff" fill-opacity="1"><g transform="translate(306.544202, 409.125468)"><g><path d="M 74.09375 -75.484375 L 74.09375 -47.40625 L 58.21875 -47.40625 L 58.21875 -61.234375 L 49.140625 -61.234375 L 49.140625 -14.359375 L 58.109375 -14.359375 L 58.109375 0 L 17.921875 0 L 17.921875 -14.359375 L 26.78125 -14.359375 L 26.78125 -61.234375 L 17.5 -61.234375 L 17.5 -47.40625 L 1.625 -47.40625 L 1.625 -75.484375 Z M 74.09375 -75.484375 "/></g></g></g><g fill="#ff00ff" fill-opacity="1"><g transform="translate(382.252221, 409.125468)"><g><path d="M 2.703125 0 L 2.703125 -27.21875 L 22.78125 -27.21875 C 22.78125 -24.988281 23.265625 -23.171875 24.234375 -21.765625 C 25.210938 -20.359375 26.4375 -19.273438 27.90625 -18.515625 C 29.382812 -17.765625 30.878906 -17.242188 32.390625 -16.953125 C 33.910156 -16.671875 35.242188 -16.492188 36.390625 -16.421875 C 37.691406 -16.421875 39.039062 -16.546875 40.4375 -16.796875 C 41.84375 -17.046875 43.050781 -17.566406 44.0625 -18.359375 C 45.070312 -19.148438 45.578125 -20.300781 45.578125 -21.8125 C 45.578125 -23.039062 44.820312 -24.050781 43.3125 -24.84375 C 41.800781 -25.632812 39.820312 -26.390625 37.375 -27.109375 C 34.925781 -27.828125 32.222656 -28.597656 29.265625 -29.421875 C 26.316406 -30.253906 23.363281 -31.28125 20.40625 -32.5 C 17.457031 -33.726562 14.757812 -35.296875 12.3125 -37.203125 C 9.863281 -39.109375 7.882812 -41.429688 6.375 -44.171875 C 4.863281 -46.910156 4.109375 -50.257812 4.109375 -54.21875 C 4.109375 -58.25 4.9375 -61.722656 6.59375 -64.640625 C 8.25 -67.554688 10.390625 -69.945312 13.015625 -71.8125 C 15.640625 -73.6875 18.425781 -75.09375 21.375 -76.03125 C 24.332031 -76.96875 27.144531 -77.4375 29.8125 -77.4375 C 34.34375 -77.4375 38.695312 -76.609375 42.875 -74.953125 C 47.050781 -73.296875 50.21875 -70.453125 52.375 -66.421875 L 53.453125 -75.484375 L 72.03125 -75.484375 L 72.03125 -48.390625 L 52.484375 -48.390625 C 52.484375 -52.421875 51.132812 -55.515625 48.4375 -57.671875 C 45.738281 -59.828125 42.476562 -60.90625 38.65625 -60.90625 C 37.070312 -60.90625 35.4375 -60.421875 33.75 -59.453125 C 32.0625 -58.484375 31.21875 -57.0625 31.21875 -55.1875 C 31.21875 -53.601562 31.988281 -52.253906 33.53125 -51.140625 C 35.082031 -50.023438 37.132812 -49 39.6875 -48.0625 C 42.25 -47.125 45.039062 -46.164062 48.0625 -45.1875 C 51.082031 -44.21875 54.101562 -43.085938 57.125 -41.796875 C 60.15625 -40.503906 62.945312 -38.957031 65.5 -37.15625 C 68.0625 -35.351562 70.113281 -33.15625 71.65625 -30.5625 C 73.207031 -27.96875 73.984375 -24.875 73.984375 -21.28125 C 73.984375 -17.101562 73.117188 -13.535156 71.390625 -10.578125 C 69.660156 -7.628906 67.375 -5.269531 64.53125 -3.5 C 61.6875 -1.738281 58.585938 -0.445312 55.234375 0.375 C 51.890625 1.207031 48.597656 1.625 45.359375 1.625 C 39.890625 1.625 35.28125 0.582031 31.53125 -1.5 C 27.789062 -3.59375 24.875 -5.863281 22.78125 -8.3125 L 21.59375 0 Z M 2.703125 0 "/></g></g></g><g fill="#ff00ff" fill-opacity="1"><g transform="translate(458.932244, 409.125468)"><g><path d="M 0.109375 22.6875 L 27 22.6875 L 27 -87.90625 L 0 -87.90625 L 0 -73.765625 L 6.484375 -73.765625 L 6.484375 8.53125 L 0.109375 8.53125 Z M 0.109375 22.6875 "/></g></g></g><g fill="#00ffff" fill-opacity="1"><g transform="translate(267.156669, 412.124532)"><g><path d="M 41.796875 22.6875 L 14.90625 22.6875 L 14.90625 -87.90625 L 41.90625 -87.90625 L 41.90625 -73.765625 L 35.421875 -73.765625 L 35.421875 8.53125 L 41.796875 8.53125 Z M 41.796875 22.6875 "/></g></g></g><g fill="#00ffff" fill-opacity="1"><g transform="translate(309.060686, 412.124532)"><g><path d="M 74.09375 -75.484375 L 74.09375 -47.40625 L 58.21875 -47.40625 L 58.21875 -61.234375 L 49.140625 -61.234375 L 49.140625 -14.359375 L 58.109375 -14.359375 L 58.109375 0 L 17.921875 0 L 17.921875 -14.359375 L 26.78125 -14.359375 L 26.78125 -61.234375 L 17.5 -61.234375 L 17.5 -47.40625 L 1.625 -47.40625 L 1.625 -75.484375 Z M 74.09375 -75.484375 "/></g></g></g><g fill="#00ffff" fill-opacity="1"><g transform="translate(384.768705, 412.124532)"><g><path d="M 2.703125 0 L 2.703125 -27.21875 L 22.78125 -27.21875 C 22.78125 -24.988281 23.265625 -23.171875 24.234375 -21.765625 C 25.210938 -20.359375 26.4375 -19.273438 27.90625 -18.515625 C 29.382812 -17.765625 30.878906 -17.242188 32.390625 -16.953125 C 33.910156 -16.671875 35.242188 -16.492188 36.390625 -16.421875 C 37.691406 -16.421875 39.039062 -16.546875 40.4375 -16.796875 C 41.84375 -17.046875 43.050781 -17.566406 44.0625 -18.359375 C 45.070312 -19.148438 45.578125 -20.300781 45.578125 -21.8125 C 45.578125 -23.039062 44.820312 -24.050781 43.3125 -24.84375 C 41.800781 -25.632812 39.820312 -26.390625 37.375 -27.109375 C 34.925781 -27.828125 32.222656 -28.597656 29.265625 -29.421875 C 26.316406 -30.253906 23.363281 -31.28125 20.40625 -32.5 C 17.457031 -33.726562 14.757812 -35.296875 12.3125 -37.203125 C 9.863281 -39.109375 7.882812 -41.429688 6.375 -44.171875 C 4.863281 -46.910156 4.109375 -50.257812 4.109375 -54.21875 C 4.109375 -58.25 4.9375 -61.722656 6.59375 -64.640625 C 8.25 -67.554688 10.390625 -69.945312 13.015625 -71.8125 C 15.640625 -73.6875 18.425781 -75.09375 21.375 -76.03125 C 24.332031 -76.96875 27.144531 -77.4375 29.8125 -77.4375 C 34.34375 -77.4375 38.695312 -76.609375 42.875 -74.953125 C 47.050781 -73.296875 50.21875 -70.453125 52.375 -66.421875 L 53.453125 -75.484375 L 72.03125 -75.484375 L 72.03125 -48.390625 L 52.484375 -48.390625 C 52.484375 -52.421875 51.132812 -55.515625 48.4375 -57.671875 C 45.738281 -59.828125 42.476562 -60.90625 38.65625 -60.90625 C 37.070312 -60.90625 35.4375 -60.421875 33.75 -59.453125 C 32.0625 -58.484375 31.21875 -57.0625 31.21875 -55.1875 C 31.21875 -53.601562 31.988281 -52.253906 33.53125 -51.140625 C 35.082031 -50.023438 37.132812 -49 39.6875 -48.0625 C 42.25 -47.125 45.039062 -46.164062 48.0625 -45.1875 C 51.082031 -44.21875 54.101562 -43.085938 57.125 -41.796875 C 60.15625 -40.503906 62.945312 -38.957031 65.5 -37.15625 C 68.0625 -35.351562 70.113281 -33.15625 71.65625 -30.5625 C 73.207031 -27.96875 73.984375 -24.875 73.984375 -21.28125 C 73.984375 -17.101562 73.117188 -13.535156 71.390625 -10.578125 C 69.660156 -7.628906 67.375 -5.269531 64.53125 -3.5 C 61.6875 -1.738281 58.585938 -0.445312 55.234375 0.375 C 51.890625 1.207031 48.597656 1.625 45.359375 1.625 C 39.890625 1.625 35.28125 0.582031 31.53125 -1.5 C 27.789062 -3.59375 24.875 -5.863281 22.78125 -8.3125 L 21.59375 0 Z M 2.703125 0 "/></g></g></g><g fill="#00ffff" fill-opacity="1"><g transform="translate(461.448728, 412.124532)"><g><path d="M 0.109375 22.6875 L 27 22.6875 L 27 -87.90625 L 0 -87.90625 L 0 -73.765625 L 6.484375 -73.765625 L 6.484375 8.53125 L 0.109375 8.53125 Z M 0.109375 22.6875 "/></g></g></g><g fill="#ffffff" fill-opacity="1"><g transform="translate(265.898428, 410.625)"><g><path d="M 41.796875 22.6875 L 14.90625 22.6875 L 14.90625 -87.90625 L 41.90625 -87.90625 L 41.90625 -73.765625 L 35.421875 -73.765625 L 35.421875 8.53125 L 41.796875 8.53125 Z M 41.796875 22.6875 "/></g></g></g><g fill="#ffffff" fill-opacity="1"><g transform="translate(307.802445, 410.625)"><g><path d="M 74.09375 -75.484375 L 74.09375 -47.40625 L 58.21875 -47.40625 L 58.21875 -61.234375 L 49.140625 -61.234375 L 49.140625 -14.359375 L 58.109375 -14.359375 L 58.109375 0 L 17.921875 0 L 17.921875 -14.359375 L 26.78125 -14.359375 L 26.78125 -61.234375 L 17.5 -61.234375 L 17.5 -47.40625 L 1.625 -47.40625 L 1.625 -75.484375 Z M 74.09375 -75.484375 "/></g></g></g><g fill="#ffffff" fill-opacity="1"><g transform="translate(383.510464, 410.625)"><g><path d="M 2.703125 0 L 2.703125 -27.21875 L 22.78125 -27.21875 C 22.78125 -24.988281 23.265625 -23.171875 24.234375 -21.765625 C 25.210938 -20.359375 26.4375 -19.273438 27.90625 -18.515625 C 29.382812 -17.765625 30.878906 -17.242188 32.390625 -16.953125 C 33.910156 -16.671875 35.242188 -16.492188 36.390625 -16.421875 C 37.691406 -16.421875 39.039062 -16.546875 40.4375 -16.796875 C 41.84375 -17.046875 43.050781 -17.566406 44.0625 -18.359375 C 45.070312 -19.148438 45.578125 -20.300781 45.578125 -21.8125 C 45.578125 -23.039062 44.820312 -24.050781 43.3125 -24.84375 C 41.800781 -25.632812 39.820312 -26.390625 37.375 -27.109375 C 34.925781 -27.828125 32.222656 -28.597656 29.265625 -29.421875 C 26.316406 -30.253906 23.363281 -31.28125 20.40625 -32.5 C 17.457031 -33.726562 14.757812 -35.296875 12.3125 -37.203125 C 9.863281 -39.109375 7.882812 -41.429688 6.375 -44.171875 C 4.863281 -46.910156 4.109375 -50.257812 4.109375 -54.21875 C 4.109375 -58.25 4.9375 -61.722656 6.59375 -64.640625 C 8.25 -67.554688 10.390625 -69.945312 13.015625 -71.8125 C 15.640625 -73.6875 18.425781 -75.09375 21.375 -76.03125 C 24.332031 -76.96875 27.144531 -77.4375 29.8125 -77.4375 C 34.34375 -77.4375 38.695312 -76.609375 42.875 -74.953125 C 47.050781 -73.296875 50.21875 -70.453125 52.375 -66.421875 L 53.453125 -75.484375 L 72.03125 -75.484375 L 72.03125 -48.390625 L 52.484375 -48.390625 C 52.484375 -52.421875 51.132812 -55.515625 48.4375 -57.671875 C 45.738281 -59.828125 42.476562 -60.90625 38.65625 -60.90625 C 37.070312 -60.90625 35.4375 -60.421875 33.75 -59.453125 C 32.0625 -58.484375 31.21875 -57.0625 31.21875 -55.1875 C 31.21875 -53.601562 31.988281 -52.253906 33.53125 -51.140625 C 35.082031 -50.023438 37.132812 -49 39.6875 -48.0625 C 42.25 -47.125 45.039062 -46.164062 48.0625 -45.1875 C 51.082031 -44.21875 54.101562 -43.085938 57.125 -41.796875 C 60.15625 -40.503906 62.945312 -38.957031 65.5 -37.15625 C 68.0625 -35.351562 70.113281 -33.15625 71.65625 -30.5625 C 73.207031 -27.96875 73.984375 -24.875 73.984375 -21.28125 C 73.984375 -17.101562 73.117188 -13.535156 71.390625 -10.578125 C 69.660156 -7.628906 67.375 -5.269531 64.53125 -3.5 C 61.6875 -1.738281 58.585938 -0.445312 55.234375 0.375 C 51.890625 1.207031 48.597656 1.625 45.359375 1.625 C 39.890625 1.625 35.28125 0.582031 31.53125 -1.5 C 27.789062 -3.59375 24.875 -5.863281 22.78125 -8.3125 L 21.59375 0 Z M 2.703125 0 "/></g></g></g><g fill="#ffffff" fill-opacity="1"><g transform="translate(460.190488, 410.625)"><g><path d="M 0.109375 22.6875 L 27 22.6875 L 27 -87.90625 L 0 -87.90625 L 0 -73.765625 L 6.484375 -73.765625 L 6.484375 8.53125 L 0.109375 8.53125 Z M 0.109375 22.6875 "/></g></g></g></svg>